<svg viewBox="0 0 1200 400" xmlns="http://www.w3.org/2000/svg" role="img" aria-label="Two stick figures sword fighting on a pirate ship">
  <!-- Parchment background -->
  <rect width="1200" height="400" fill="#F5EFE0"/>

  <!-- Subtle tea-stain texture -->
  <circle cx="150" cy="100" r="90" fill="#EADFB8" opacity="0.35"/>
  <circle cx="1050" cy="320" r="140" fill="#EADFB8" opacity="0.35"/>
  <circle cx="700" cy="60" r="60" fill="#EADFB8" opacity="0.25"/>

  <!-- Moon -->
  <circle cx="980" cy="90" r="32" fill="none" stroke="#2A2018" stroke-width="2"/>
  <circle cx="970" cy="85" r="4" fill="none" stroke="#2A2018" stroke-width="1.5"/>
  <circle cx="990" cy="100" r="3" fill="none" stroke="#2A2018" stroke-width="1.5"/>

  <!-- Clouds -->
  <g fill="none" stroke="#2A2018" stroke-width="2" stroke-linecap="round">
    <path d="M 100,80 Q 130,62 160,80 Q 180,70 200,85"/>
    <path d="M 280,130 Q 310,110 340,130"/>
    <path d="M 850,70 Q 880,50 910,70 Q 930,60 950,75"/>
  </g>

  <!-- Distant birds -->
  <g fill="none" stroke="#2A2018" stroke-width="2" stroke-linecap="round">
    <path d="M 420,95 Q 428,88 436,95 Q 444,88 452,95"/>
    <path d="M 510,75 Q 517,69 524,75 Q 531,69 538,75"/>
    <path d="M 760,110 Q 767,104 774,110 Q 781,104 788,110"/>
  </g>

  <!-- The whole ship group rocks gently -->
  <g>
    <animateTransform attributeName="transform" type="rotate"
                      values="-2 600 360; 2 600 360; -2 600 360"
                      dur="5s" repeatCount="indefinite"/>

    <!-- ═══════════════════════════════════════════════════════════ -->
    <!-- SHIP RIG — vertical mast, three yards, three stacked sails  -->
    <!-- ═══════════════════════════════════════════════════════════ -->

    <!-- 1. CLEAR VERTICAL MAINMAST — primary visual anchor -->
    <line x1="600" y1="40" x2="600" y2="340" stroke="#2A2018" stroke-width="4"/>

    <!-- 6. CLEAN RIGGING (thin, 50% opacity, behind the sails) -->
    <g stroke="#2A2018" stroke-width="1" opacity="0.5" stroke-linecap="round">
      <!-- Forestay (mast top down to bow) -->
      <line x1="600" y1="42" x2="445" y2="326"/>
      <!-- Backstay (mast top down to stern) -->
      <line x1="600" y1="42" x2="795" y2="322"/>
      <!-- Shrouds from yard ends to the deck rail -->
      <line x1="560" y1="100" x2="495" y2="340"/>
      <line x1="640" y1="100" x2="705" y2="340"/>
      <line x1="540" y1="165" x2="485" y2="340"/>
      <line x1="660" y1="165" x2="715" y2="340"/>
      <line x1="530" y1="235" x2="475" y2="340"/>
      <line x1="670" y1="235" x2="725" y2="340"/>
    </g>

    <!-- 3c. LOWER SAIL (biggest, DARK with Jolly Roger) — rendered first so upper sails stack on top -->
    <line x1="530" y1="235" x2="670" y2="235" stroke="#2A2018" stroke-width="3" stroke-linecap="round"/>
    <path d="M 530,237 Q 523,262 532,288 Q 600,296 668,288 Q 677,262 670,237 Z"
          fill="#2A2018" stroke="#2A2018" stroke-width="2" stroke-linejoin="round"/>
    <!-- Skull-and-crossbones on the lower sail (white on dark) -->
    <g stroke="#F5EFE0" stroke-width="2.5" stroke-linecap="round" fill="none">
      <line x1="576" y1="247" x2="624" y2="281"/>
      <line x1="576" y1="281" x2="624" y2="247"/>
    </g>
    <g fill="#F5EFE0">
      <circle cx="574" cy="245" r="2.5"/>
      <circle cx="626" cy="283" r="2.5"/>
      <circle cx="574" cy="283" r="2.5"/>
      <circle cx="626" cy="245" r="2.5"/>
    </g>
    <circle cx="600" cy="264" r="10" fill="#F5EFE0"/>
    <circle cx="595" cy="262" r="2.5" fill="#2A2018"/>
    <circle cx="605" cy="262" r="2.5" fill="#2A2018"/>
    <path d="M 600,268 L 596,272 L 604,272 Z" fill="#2A2018"/>
    <rect x="590" y="271" width="20" height="3" fill="#F5EFE0"/>
    <g stroke="#2A2018" stroke-width="1">
      <line x1="594" y1="271" x2="594" y2="274"/>
      <line x1="600" y1="271" x2="600" y2="274"/>
      <line x1="606" y1="271" x2="606" y2="274"/>
    </g>

    <!-- 3b. MIDDLE SAIL (cream, slight billow) -->
    <line x1="540" y1="165" x2="660" y2="165" stroke="#2A2018" stroke-width="2.8" stroke-linecap="round"/>
    <path d="M 540,167 Q 533,190 542,213 Q 600,221 658,213 Q 667,190 660,167 Z"
          fill="#F0E8D0" stroke="#2A2018" stroke-width="2" stroke-linejoin="round"/>
    <!-- Reefing band -->
    <path d="M 542,188 Q 600,195 658,188" fill="none" stroke="#2A2018" stroke-width="1" stroke-dasharray="3 2"/>

    <!-- 3a. UPPER SAIL (smallest, cream) -->
    <line x1="560" y1="100" x2="640" y2="100" stroke="#2A2018" stroke-width="2.5" stroke-linecap="round"/>
    <path d="M 560,102 Q 554,122 562,142 Q 600,149 638,142 Q 646,122 640,102 Z"
          fill="#F0E8D0" stroke="#2A2018" stroke-width="1.8" stroke-linejoin="round"/>

    <!-- 4. CROW'S NEST — small barrel/platform just below the upper yard (on top of the upper sail) -->
    <path d="M 585,103 L 615,103 L 613,118 L 587,118 Z"
          fill="#F0E8D0" stroke="#2A2018" stroke-width="1.5" stroke-linejoin="round"/>
    <line x1="588" y1="108" x2="612" y2="108" stroke="#2A2018" stroke-width="1"/>

    <!-- 5. MAIN FLAG at the very top — big Jolly Roger, gently waves -->
    <path fill="#2A2018" d="M 600,42 L 660,48 L 653,60 L 660,72 L 600,74 Z">
      <animate attributeName="d" dur="1.8s" repeatCount="indefinite"
        values="M 600,42 L 660,48 L 653,60 L 660,72 L 600,74 Z;
                M 600,42 L 660,38 L 662,60 L 660,68 L 600,74 Z;
                M 600,42 L 660,48 L 653,60 L 660,72 L 600,74 Z"/>
    </path>
    <!-- Skull-and-crossbones on the flag — waves with the flag on the same 1.8s beat -->
    <g>
      <animateTransform attributeName="transform" type="translate"
                        values="0,0; 1,-5; 0,0"
                        dur="1.8s" repeatCount="indefinite"/>
      <!-- Crossbones -->
      <g stroke="#F5EFE0" stroke-width="1.8" stroke-linecap="round" fill="none">
        <line x1="614" y1="48" x2="644" y2="72"/>
        <line x1="614" y1="72" x2="644" y2="48"/>
      </g>
      <g fill="#F5EFE0">
        <circle cx="613" cy="48" r="1.7"/>
        <circle cx="646" cy="72" r="1.7"/>
        <circle cx="613" cy="72" r="1.7"/>
        <circle cx="646" cy="48" r="1.7"/>
      </g>
      <!-- Skull -->
      <circle cx="629" cy="60" r="6" fill="#F5EFE0"/>
      <circle cx="626" cy="58" r="1.5" fill="#2A2018"/>
      <circle cx="632" cy="58" r="1.5" fill="#2A2018"/>
      <path d="M 629,62 L 627,65 L 631,65 Z" fill="#2A2018"/>
      <rect x="623" y="64" width="12" height="2.5" fill="#F5EFE0"/>
      <g stroke="#2A2018" stroke-width="0.8">
        <line x1="626" y1="64" x2="626" y2="66.5"/>
        <line x1="629" y1="64" x2="629" y2="66.5"/>
        <line x1="632" y1="64" x2="632" y2="66.5"/>
      </g>
    </g>

    <!-- Deck line (main deck, between the fore- and stern-castles) -->
    <line x1="460" y1="340" x2="750" y2="340" stroke="#2A2018" stroke-width="2.5"/>

    <!-- Hull — galleon profile with raised fore- and stern-castles + curved bottom (wood brown) -->
    <path d="M 420,340 L 445,340 L 445,326 L 465,326 L 465,340 L 750,340 L 750,322 L 795,322 L 795,340 L 808,340 Q 788,400 600,405 Q 432,400 420,340 Z"
          fill="#9C6B3F" stroke="#2A2018" stroke-width="3" stroke-linejoin="round"/>

    <!-- Hull planks — follow the curved hull bottom without spilling past the edges -->
    <path d="M 445,355 Q 600,360 788,355" fill="none" stroke="#2A2018" stroke-width="1"/>
    <path d="M 470,372 Q 600,380 770,372" fill="none" stroke="#2A2018" stroke-width="1"/>
    <path d="M 510,388 Q 600,396 720,388" fill="none" stroke="#2A2018" stroke-width="1"/>

    <!-- Portholes along the hull -->
    <g fill="none" stroke="#2A2018" stroke-width="2">
      <circle cx="480" cy="362" r="6"/>
      <circle cx="535" cy="362" r="6"/>
      <circle cx="595" cy="362" r="6"/>
      <circle cx="655" cy="362" r="6"/>
      <circle cx="715" cy="362" r="6"/>
      <circle cx="770" cy="362" r="5"/>
    </g>

    <!-- Mizzenmast + small pirate pennant + spanker sail at the stern -->
    <line x1="775" y1="285" x2="775" y2="322" stroke="#2A2018" stroke-width="2.5"/>
    <!-- Stern pennant: small rectangular pirate flag (Jolly Roger) -->
    <rect x="775" y="288" width="18" height="12" fill="#2A2018"/>
    <!-- Tiny skull + crossbones on pennant -->
    <g stroke="#F5EFE0" stroke-width="0.7" stroke-linecap="round" fill="none">
      <line x1="780" y1="291" x2="788" y2="298"/>
      <line x1="780" y1="298" x2="788" y2="291"/>
    </g>
    <circle cx="784" cy="294.5" r="2" fill="#F5EFE0"/>
    <circle cx="783" cy="294" r="0.4" fill="#2A2018"/>
    <circle cx="785" cy="294" r="0.4" fill="#2A2018"/>

    <!-- Crate on deck (front/bow side) — sits flat on the main deck (y=340) -->
    <g stroke="#2A2018" stroke-width="1.8" fill="#8B5A2B">
      <rect x="472" y="318" width="22" height="22"/>
      <line x1="483" y1="318" x2="483" y2="340" stroke-width="1"/>
      <line x1="472" y1="329" x2="494" y2="329" stroke-width="1"/>
    </g>

    <!-- Barrel on deck (stern side) — proper curved body + two bands -->
    <g stroke="#2A2018" stroke-width="1.5" fill="#8B5A2B">
      <!-- Body with slightly bulging staves -->
      <path d="M 730,316 Q 728,325 730,334 Q 740,338 750,334 Q 752,325 750,316 Q 740,320 730,316 Z"/>
      <!-- Top rim -->
      <ellipse cx="740" cy="316" rx="10" ry="3"/>
      <!-- Top opening (inner ellipse) -->
      <ellipse cx="740" cy="316" rx="7.5" ry="2" fill="none" stroke-width="0.8"/>
      <!-- Two horizontal bands -->
      <path d="M 730,322 Q 740,325 750,322" fill="none" stroke-width="1"/>
      <path d="M 730,328 Q 740,331 750,328" fill="none" stroke-width="1"/>
    </g>

    <!-- ═══════════════════════════════════════════ -->
    <!-- STICK FIGURE 1 — LEFT (bandana pirate)     -->
    <!-- ═══════════════════════════════════════════ -->
    <g stroke="#2A2018" stroke-width="2.3" stroke-linecap="round" fill="none">
      <!-- Head -->
      <circle cx="515" cy="268" r="9" fill="#F5EFE0"/>
      <!-- Bandana -->
      <path d="M 506,265 Q 515,259 524,265 L 524,269 L 506,269 Z" fill="#2A2018" stroke="none"/>
      <!-- Bandana knot + tails -->
      <line x1="524" y1="267" x2="531" y2="273" stroke-width="2"/>
      <line x1="526" y1="265" x2="533" y2="269" stroke-width="1.5"/>
      <!-- Two eyes -->
      <circle cx="512" cy="270" r="1.1" fill="#2A2018" stroke="none"/>
      <circle cx="518" cy="270" r="1.1" fill="#2A2018" stroke="none"/>
      <!-- Smile curve -->
      <path d="M 511,274 Q 515,276 519,274" stroke-width="1" fill="none"/>
      <!-- Earring -->
      <circle cx="506" cy="272" r="1" stroke="#2A2018" stroke-width="0.7" fill="none"/>
      <!-- Body -->
      <line x1="515" y1="277" x2="515" y2="315"/>
      <!-- Legs (reach deck at y=340) -->
      <line x1="515" y1="315" x2="504" y2="340"/>
      <line x1="515" y1="315" x2="526" y2="340"/>
      <!-- Back arm -->
      <line x1="515" y1="287" x2="503" y2="302"/>

      <!-- SWORD ARM + CUTLASS — arm reaches out, fist wraps the hilt, hilt goes
           nearly vertical (perpendicular to the arm). Clear wrist bend. -->
      <g>
        <animateTransform attributeName="transform" type="rotate"
                          values="-5 515 287; -28 515 287; -10 515 287; 15 515 287; -5 515 287"
                          dur="1.3s" repeatCount="indefinite"/>
        <!-- Forearm (extended forward from shoulder to fist) -->
        <line x1="515" y1="287" x2="548" y2="280"/>
        <!-- Fist wrapping around the hilt -->
        <circle cx="548" cy="280" r="3.2" fill="#F5EFE0" stroke="#2A2018" stroke-width="1.4"/>
        <!-- Pommel peeking out behind the fist -->
        <circle cx="545" cy="283" r="1.7" fill="#2A2018" stroke="none"/>
        <!-- Wrapped grip — aligned with the sword axis (fist → tip is one straight line) -->
        <line x1="549" y1="279" x2="554" y2="275" stroke="#2A2018" stroke-width="3" stroke-linecap="round"/>
        <!-- Crossguard (quillons) — perpendicular to the sword, at the hilt/blade junction -->
        <line x1="552" y1="270" x2="559" y2="279" stroke="#2A2018" stroke-width="2.8" stroke-linecap="round"/>
        <!-- D-knuckle guard -->
        <path d="M 559,279 Q 563,283 554,281" stroke="#2A2018" stroke-width="1.4" fill="none" stroke-linecap="round"/>
        <!-- Blade — straight, collinear with the hilt (one unbroken line from grip to tip) -->
        <path d="M 556,272 L 612,228 L 614,232 L 558,276 Z"
              fill="#F5EFE0" stroke="#2A2018" stroke-width="1.7" stroke-linejoin="round"/>
        <!-- Blade fuller -->
        <path d="M 560,271 L 612,231" stroke="#2A2018" stroke-width="0.6" fill="none" opacity="0.55"/>
      </g>
    </g>

    <!-- ═══════════════════════════════════════════ -->
    <!-- STICK FIGURE 2 — RIGHT (pirate hat + patch) -->
    <!-- ═══════════════════════════════════════════ -->
    <g stroke="#2A2018" stroke-width="2.3" stroke-linecap="round" fill="none">
      <!-- Head -->
      <circle cx="685" cy="268" r="9" fill="#F5EFE0"/>
      <!-- Tricorn hat -->
      <path d="M 670,262 Q 685,248 700,262 L 698,266 L 672,266 Z" fill="#2A2018" stroke="none"/>
      <!-- Hat brim underline -->
      <path d="M 672,264 Q 685,257 698,264" stroke-width="1.2" fill="none"/>
      <!-- Tiny skull on hat -->
      <circle cx="685" cy="258" r="1.4" fill="#F5EFE0" stroke="none"/>
      <circle cx="683.7" cy="257.5" r="0.3" fill="#2A2018" stroke="none"/>
      <circle cx="686.3" cy="257.5" r="0.3" fill="#2A2018" stroke="none"/>
      <!-- Eye patch (proper oval shape) -->
      <ellipse cx="681" cy="269" rx="3" ry="2.5" fill="#2A2018" stroke="none"/>
      <!-- Patch strap across forehead -->
      <line x1="678" y1="267" x2="692" y2="265" stroke-width="1"/>
      <!-- Good eye -->
      <circle cx="689" cy="270" r="1.2" fill="#2A2018" stroke="none"/>
      <!-- Smile curve -->
      <path d="M 681,274 Q 685,276 689,274" stroke-width="1" fill="none"/>
      <!-- Earring -->
      <circle cx="694" cy="273" r="1" stroke="#2A2018" stroke-width="0.7" fill="none"/>
      <!-- Body -->
      <line x1="685" y1="277" x2="685" y2="315"/>
      <!-- Legs (reach deck at y=340) -->
      <line x1="685" y1="315" x2="674" y2="340"/>
      <line x1="685" y1="315" x2="696" y2="340"/>
      <!-- Back arm -->
      <line x1="685" y1="287" x2="697" y2="302"/>

      <!-- SWORD ARM + CUTLASS — mirrored, different timing so swings desync -->
      <g>
        <animateTransform attributeName="transform" type="rotate"
                          values="8 685 287; -12 685 287; 28 685 287; 5 685 287; 8 685 287"
                          dur="1.05s" repeatCount="indefinite"/>
        <!-- Forearm (extended forward-left) -->
        <line x1="685" y1="287" x2="652" y2="280"/>
        <!-- Fist wrapping around the hilt -->
        <circle cx="652" cy="280" r="3.2" fill="#F5EFE0" stroke="#2A2018" stroke-width="1.4"/>
        <!-- Pommel peeking out behind the fist -->
        <circle cx="655" cy="283" r="1.7" fill="#2A2018" stroke="none"/>
        <!-- Wrapped grip — aligned with the sword axis -->
        <line x1="651" y1="279" x2="646" y2="275" stroke="#2A2018" stroke-width="3" stroke-linecap="round"/>
        <!-- Crossguard — perpendicular at the hilt/blade junction -->
        <line x1="648" y1="270" x2="641" y2="279" stroke="#2A2018" stroke-width="2.8" stroke-linecap="round"/>
        <!-- D-knuckle guard (mirrored) -->
        <path d="M 641,279 Q 637,283 646,281" stroke="#2A2018" stroke-width="1.4" fill="none" stroke-linecap="round"/>
        <!-- Blade — straight, collinear with the hilt (mirrored) -->
        <path d="M 644,272 L 588,228 L 586,232 L 642,276 Z"
              fill="#F5EFE0" stroke="#2A2018" stroke-width="1.7" stroke-linejoin="round"/>
        <!-- Blade fuller -->
        <path d="M 640,271 L 588,231" stroke="#2A2018" stroke-width="0.6" fill="none" opacity="0.55"/>
      </g>
    </g>

    <!-- CLASH SPARKS at the cutlass crossing -->
    <g transform="translate(600 238)" stroke="#2A2018" stroke-width="2" stroke-linecap="round">
      <g>
        <animate attributeName="opacity" values="0;0;0;1;0;0" dur="1.1s" repeatCount="indefinite"/>
        <line x1="0" y1="0" x2="-8" y2="-8"/>
        <line x1="0" y1="0" x2="8" y2="-8"/>
        <line x1="0" y1="0" x2="-11" y2="0"/>
        <line x1="0" y1="0" x2="11" y2="0"/>
        <line x1="0" y1="0" x2="0" y2="-11"/>
        <line x1="0" y1="0" x2="-6" y2="6"/>
        <line x1="0" y1="0" x2="6" y2="6"/>
      </g>
    </g>
  </g>

  <!-- Ocean — two layered waves in muted blue-grey -->
  <g clip-path="inset(0)">
    <path fill="#B5C9D4" d="M -40,355 Q 40,345 120,355 Q 200,365 280,355 Q 360,345 440,355 L 760,355 Q 840,365 920,355 Q 1000,345 1080,355 Q 1160,365 1240,355 L 1240,400 L -40,400 Z">
      <animate attributeName="d" dur="5s" repeatCount="indefinite"
        values="M -40,355 Q 40,345 120,355 Q 200,365 280,355 Q 360,345 440,355 L 760,355 Q 840,365 920,355 Q 1000,345 1080,355 Q 1160,365 1240,355 L 1240,400 L -40,400 Z;
                M -40,355 Q 40,365 120,355 Q 200,345 280,355 Q 360,365 440,355 L 760,355 Q 840,345 920,355 Q 1000,365 1080,355 Q 1160,345 1240,355 L 1240,400 L -40,400 Z;
                M -40,355 Q 40,345 120,355 Q 200,365 280,355 Q 360,345 440,355 L 760,355 Q 840,365 920,355 Q 1000,345 1080,355 Q 1160,365 1240,355 L 1240,400 L -40,400 Z"/>
    </path>
    <path fill="#93AEBF" opacity="0.9" d="M -40,375 Q 60,370 160,375 Q 260,380 360,375 L 760,375 Q 860,370 960,375 Q 1060,380 1160,375 Q 1240,370 1240,375 L 1240,400 L -40,400 Z">
      <animate attributeName="d" dur="4s" repeatCount="indefinite"
        values="M -40,375 Q 60,370 160,375 Q 260,380 360,375 L 760,375 Q 860,370 960,375 Q 1060,380 1160,375 Q 1240,370 1240,375 L 1240,400 L -40,400 Z;
                M -40,375 Q 60,380 160,375 Q 260,370 360,375 L 760,375 Q 860,380 960,375 Q 1060,370 1160,375 Q 1240,380 1240,375 L 1240,400 L -40,400 Z;
                M -40,375 Q 60,370 160,375 Q 260,380 360,375 L 760,375 Q 860,370 960,375 Q 1060,380 1160,375 Q 1240,370 1240,375 L 1240,400 L -40,400 Z"/>
    </path>

    <!-- Wave crest marks — tiny ˘ shapes scattered across the water for texture -->
    <g stroke="#2A2018" fill="none" stroke-linecap="round">
      <!-- Upper water (smaller, fainter crests just under the surface) -->
      <g stroke-width="0.8" opacity="0.4">
        <path d="M 80,360 Q 84,358 88,360"/>
        <path d="M 155,363 Q 160,361 165,363"/>
        <path d="M 245,358 Q 251,356 257,358"/>
        <path d="M 320,362 Q 326,360 332,362"/>
        <path d="M 395,358 Q 401,356 407,358"/>
        <path d="M 865,362 Q 871,360 877,362"/>
        <path d="M 940,358 Q 946,356 952,358"/>
        <path d="M 1030,362 Q 1036,360 1042,362"/>
        <path d="M 1110,358 Q 1116,356 1122,358"/>
      </g>
      <!-- Mid water -->
      <g stroke-width="0.9" opacity="0.5">
        <path d="M 55,378 Q 63,375 71,378"/>
        <path d="M 140,382 Q 148,379 156,382"/>
        <path d="M 215,376 Q 223,373 231,376"/>
        <path d="M 295,380 Q 303,377 311,380"/>
        <path d="M 370,376 Q 378,373 386,376"/>
        <path d="M 840,380 Q 848,377 856,380"/>
        <path d="M 915,376 Q 923,373 931,376"/>
        <path d="M 990,380 Q 998,377 1006,380"/>
        <path d="M 1065,376 Q 1073,373 1081,376"/>
        <path d="M 1140,380 Q 1148,377 1156,380"/>
      </g>
      <!-- Deeper water (scattered, smaller) -->
      <g stroke-width="0.8" opacity="0.45">
        <path d="M 100,392 Q 106,390 112,392"/>
        <path d="M 180,395 Q 186,393 192,395"/>
        <path d="M 260,390 Q 266,388 272,390"/>
        <path d="M 340,393 Q 346,391 352,393"/>
        <path d="M 880,395 Q 886,393 892,395"/>
        <path d="M 960,392 Q 966,390 972,392"/>
        <path d="M 1040,395 Q 1046,393 1052,395"/>
        <path d="M 1120,390 Q 1126,388 1132,390"/>
      </g>
    </g>
  </g>

  <!-- Shark swimming right-to-left, mirrored so head leads. Subtle bob offsets the airship's rhythm -->
  <g transform="translate(1200, 0) scale(-1, 1)">
    <g>
      <!-- Horizontal drift (right-to-left in screen space due to outer mirror) -->
      <animateTransform attributeName="transform" type="translate"
                        values="-260,0; 1280,0"
                        dur="34s" repeatCount="indefinite"/>
      <g>
        <!-- Vertical bob — different period from airship so they don't look synced -->
        <animateTransform attributeName="transform" type="translate"
                          values="0,0; 0,3; 0,-2; 0,2; 0,0"
                          dur="3.7s" repeatCount="indefinite"/>
        <!-- Body silhouette — grey like a great white -->
        <path d="M 228,362 Q 222,355 208,352 Q 198,350 192,352 L 175,330 L 172,352 Q 160,355 148,358 L 141,349 L 135,358 Q 125,360 115,361 L 95,340 L 108,361 L 100,380 L 115,361 Q 140,374 175,373 Q 210,372 220,368 Q 225,365 228,362 Z"
              fill="#9BA3A8" stroke="#2A2018" stroke-width="2" stroke-linejoin="round"/>
        <!-- Pectoral fin hanging below the body -->
        <path d="M 195,370 L 178,382 L 210,370 Z"
              fill="#9BA3A8" stroke="#2A2018" stroke-width="1.8" stroke-linejoin="round"/>
        <!-- Gill slits -->
        <g stroke="#2A2018" stroke-width="1" fill="none" stroke-linecap="round">
          <line x1="213" y1="358" x2="211" y2="365"/>
          <line x1="209" y1="358" x2="207" y2="365"/>
          <line x1="205" y1="358" x2="203" y2="365"/>
          <line x1="201" y1="358" x2="199" y2="365"/>
          <line x1="197" y1="358" x2="195" y2="365"/>
        </g>
        <!-- Eye -->
        <circle cx="219" cy="359" r="1.5" fill="#2A2018"/>
        <!-- Toothy grin -->
        <path d="M 221,369 L 223,371 L 225,369 L 227,371 L 229,369"
              stroke="#2A2018" stroke-width="0.9" fill="none"/>
      </g>
    </g>
  </g>

  <!-- ═══════════════════════════════════════════════════════ -->
  <!-- STEAMPUNK AIRSHIP — drifts across the upper sky         -->
  <!-- ═══════════════════════════════════════════════════════ -->
  <g>
    <!-- Horizontal drift: 50s from off-screen left to off-screen right -->
    <animateTransform attributeName="transform" type="translate"
                      values="-350,0; 1500,0"
                      dur="50s" repeatCount="indefinite"/>
    <g>
      <!-- Gentle vertical bob -->
      <animateTransform attributeName="transform" type="translate"
                        values="0,0; 0,-4; 0,2; 0,-2; 0,0"
                        dur="4.5s" repeatCount="indefinite"/>

      <!-- Rope from gondola stern, pulling the ribbon along behind -->
      <line x1="165" y1="115" x2="110" y2="118" stroke="#2A2018" stroke-width="1.3" stroke-linecap="round"/>

      <!-- Ribbon — trailing at the end of the rope, waves in the wind -->
      <path d="M 110,108 Q 60,104 10,108 Q -30,112 -70,108 L -70,130 Q -30,134 10,130 Q 60,126 110,130 Z"
            fill="#F0E8D0" stroke="#2A2018" stroke-width="1.5" stroke-linejoin="round">
        <animate attributeName="d" dur="2s" repeatCount="indefinite"
          values="M 110,108 Q 60,104 10,108 Q -30,112 -70,108 L -70,130 Q -30,134 10,130 Q 60,126 110,130 Z;
                  M 110,108 Q 60,112 10,108 Q -30,104 -70,108 L -70,130 Q -30,126 10,130 Q 60,134 110,130 Z;
                  M 110,108 Q 60,104 10,108 Q -30,112 -70,108 L -70,130 Q -30,134 10,130 Q 60,126 110,130 Z"/>
      </path>
      <text x="20" y="123" font-family="'Courier New', Courier, monospace"
            font-size="10" font-weight="900"
            fill="#2A2018" stroke="#2A2018" stroke-width="0.4"
            text-anchor="middle">NO TESTS, JUST PUSH &amp; COMMIT</text>

      <!-- Envelope (gas balloon) centered at (200, 75) — steampunk canvas/brass -->
      <ellipse cx="200" cy="75" rx="75" ry="20"
               fill="#C8A876" stroke="#2A2018" stroke-width="2.5"/>

      <!-- Diamond lattice pattern on envelope -->
      <g stroke="#2A2018" stroke-width="0.8" fill="none" opacity="0.6" stroke-linecap="round">
        <!-- Diagonals going up-right (NW to SE across envelope) -->
        <path d="M 140,85 Q 165,72 195,60"/>
        <path d="M 160,90 Q 190,75 225,60"/>
        <path d="M 185,92 Q 215,77 250,62"/>
        <path d="M 215,92 Q 240,80 265,70"/>
        <!-- Diagonals going up-left (NE to SW) -->
        <path d="M 140,65 Q 165,78 195,90"/>
        <path d="M 160,60 Q 190,75 225,90"/>
        <path d="M 185,58 Q 215,73 250,88"/>
        <path d="M 215,58 Q 240,70 265,80"/>
      </g>
      <!-- Hull seam across envelope -->
      <line x1="130" y1="75" x2="270" y2="75"
            stroke="#2A2018" stroke-width="0.8" stroke-dasharray="3 2"/>

      <!-- Rigging from envelope down to gondola — denser, spread to the ends -->
      <line x1="138" y1="85" x2="165" y2="110" stroke="#2A2018" stroke-width="1"/>
      <line x1="160" y1="92" x2="170" y2="110" stroke="#2A2018" stroke-width="1.1"/>
      <line x1="180" y1="94" x2="180" y2="110" stroke="#2A2018" stroke-width="1.1"/>
      <line x1="200" y1="95" x2="200" y2="110" stroke="#2A2018" stroke-width="1.1"/>
      <line x1="220" y1="94" x2="220" y2="110" stroke="#2A2018" stroke-width="1.1"/>
      <line x1="240" y1="92" x2="230" y2="110" stroke="#2A2018" stroke-width="1.1"/>
      <line x1="262" y1="85" x2="235" y2="110" stroke="#2A2018" stroke-width="1"/>

      <!-- Gondola (cabin) — dark brass/wood -->
      <path d="M 165,110 L 235,110 L 240,128 L 160,128 Z"
            fill="#8B6B47" stroke="#2A2018" stroke-width="2" stroke-linejoin="round"/>

      <!-- Portholes -->
      <g fill="none" stroke="#2A2018" stroke-width="1.3">
        <circle cx="178" cy="119" r="3"/>
        <circle cx="200" cy="119" r="3"/>
        <circle cx="222" cy="119" r="3"/>
      </g>

      <!-- Exposed gear/cog on gondola stern — brass -->
      <circle cx="246" cy="119" r="4" fill="#CD853F" stroke="#2A2018" stroke-width="0.9"/>
      <g stroke="#2A2018" stroke-width="0.8" fill="none" stroke-linecap="round">
        <line x1="241" y1="119" x2="251" y2="119"/>
        <line x1="246" y1="114" x2="246" y2="124"/>
        <line x1="242.5" y1="115.5" x2="249.5" y2="122.5"/>
        <line x1="242.5" y1="122.5" x2="249.5" y2="115.5"/>
      </g>

      <!-- Smokestack on top of envelope — copper -->
      <rect x="208" y="46" width="7" height="10" fill="#8B5A2B" stroke="#2A2018" stroke-width="1"/>
      <rect x="207" y="44" width="9" height="3" fill="#2A2018"/>

      <!-- Smoke puffs rising and drifting back -->
      <g fill="#F5EFE0" stroke="#2A2018" stroke-width="0.9">
        <circle cx="211" cy="42" r="3">
          <animate attributeName="cx" values="211;180" dur="3s" repeatCount="indefinite"/>
          <animate attributeName="cy" values="42;28" dur="3s" repeatCount="indefinite"/>
          <animate attributeName="opacity" values="0.85;0" dur="3s" repeatCount="indefinite"/>
          <animate attributeName="r" values="3;8" dur="3s" repeatCount="indefinite"/>
        </circle>
        <circle cx="211" cy="42" r="3">
          <animate attributeName="cx" values="211;170" dur="3s" repeatCount="indefinite" begin="1s"/>
          <animate attributeName="cy" values="42;22" dur="3s" repeatCount="indefinite" begin="1s"/>
          <animate attributeName="opacity" values="0.85;0" dur="3s" repeatCount="indefinite" begin="1s"/>
          <animate attributeName="r" values="3;9" dur="3s" repeatCount="indefinite" begin="1s"/>
        </circle>
        <circle cx="211" cy="42" r="3">
          <animate attributeName="cx" values="211;175" dur="3s" repeatCount="indefinite" begin="2s"/>
          <animate attributeName="cy" values="42;20" dur="3s" repeatCount="indefinite" begin="2s"/>
          <animate attributeName="opacity" values="0.85;0" dur="3s" repeatCount="indefinite" begin="2s"/>
          <animate attributeName="r" values="3;10" dur="3s" repeatCount="indefinite" begin="2s"/>
        </circle>
      </g>

      <!-- Rear stabilizer fins (top + bottom) — brass/wood -->
      <path d="M 128,67 L 112,50 L 130,63 Z" fill="#8B6B47" stroke="#2A2018" stroke-width="1.3" stroke-linejoin="round"/>
      <path d="M 128,83 L 112,100 L 130,87 Z" fill="#8B6B47" stroke="#2A2018" stroke-width="1.3" stroke-linejoin="round"/>

      <!-- Propeller at rear — spins continuously -->
      <g transform="translate(120 75)">
        <g>
          <animateTransform attributeName="transform" type="rotate"
                            values="0;360" dur="0.35s" repeatCount="indefinite"/>
          <line x1="0" y1="-9" x2="0" y2="9" stroke="#2A2018" stroke-width="2"/>
          <line x1="-9" y1="0" x2="9" y2="0" stroke="#2A2018" stroke-width="2"/>
        </g>
        <circle r="2" fill="#2A2018"/>
      </g>

    </g>
  </g>

  <!-- Name title at top -->
  <text x="600" y="52" text-anchor="middle"
        font-family="Palatino, 'Palatino Linotype', Georgia, serif"
        font-size="42" font-weight="bold"
        fill="#2A2018" letter-spacing="6">PsycheBear</text>
</svg>
