<svg viewBox="0 0 1200 400" xmlns="http://www.w3.org/2000/svg" role="img" aria-label="Two stick figures sword fighting on a pirate ship">
  <!-- Parchment background -->
  <rect width="1200" height="400" fill="#F5EFE0"/>

  <!-- Subtle tea-stain texture -->
  <circle cx="150" cy="100" r="90" fill="#EADFB8" opacity="0.35"/>
  <circle cx="1050" cy="320" r="140" fill="#EADFB8" opacity="0.35"/>
  <circle cx="700" cy="60" r="60" fill="#EADFB8" opacity="0.25"/>

  <!-- Moon -->
  <circle cx="980" cy="90" r="32" fill="none" stroke="#2A2018" stroke-width="2"/>
  <circle cx="970" cy="85" r="4" fill="none" stroke="#2A2018" stroke-width="1.5"/>
  <circle cx="990" cy="100" r="3" fill="none" stroke="#2A2018" stroke-width="1.5"/>

  <!-- Clouds -->
  <g fill="none" stroke="#2A2018" stroke-width="2" stroke-linecap="round">
    <path d="M 100,80 Q 130,62 160,80 Q 180,70 200,85"/>
    <path d="M 280,130 Q 310,110 340,130"/>
    <path d="M 850,70 Q 880,50 910,70 Q 930,60 950,75"/>
  </g>

  <!-- Distant birds -->
  <g fill="none" stroke="#2A2018" stroke-width="2" stroke-linecap="round">
    <path d="M 420,95 Q 428,88 436,95 Q 444,88 452,95"/>
    <path d="M 510,75 Q 517,69 524,75 Q 531,69 538,75"/>
    <path d="M 760,110 Q 767,104 774,110 Q 781,104 788,110"/>
  </g>

  <!-- The whole ship group rocks gently -->
  <g>
    <animateTransform attributeName="transform" type="rotate"
                      values="-2 600 360; 2 600 360; -2 600 360"
                      dur="5s" repeatCount="indefinite"/>

    <!-- Flag — waves -->
    <line x1="600" y1="70" x2="600" y2="115" stroke="#2A2018" stroke-width="2.5"/>
    <path fill="#2A2018" d="M 600,75 L 648,82 L 642,95 L 648,108 L 600,100 Z">
      <animate attributeName="d" dur="1.8s" repeatCount="indefinite"
        values="M 600,75 L 648,82 L 642,95 L 648,108 L 600,100 Z;
                M 600,75 L 648,72 L 650,95 L 648,100 L 600,100 Z;
                M 600,75 L 648,82 L 642,95 L 648,108 L 600,100 Z"/>
    </path>
    <!-- Skull-and-crossbones — moves with the flag's wave (same 1.8s beat) -->
    <g>
      <animateTransform attributeName="transform" type="translate"
                        values="0,0; 1,-5; 0,0"
                        dur="1.8s" repeatCount="indefinite"/>
      <!-- Crossbones (behind the skull) -->
      <g stroke="#F5EFE0" stroke-width="1.6" stroke-linecap="round" fill="none">
        <line x1="612" y1="82" x2="632" y2="102"/>
        <line x1="612" y1="102" x2="632" y2="82"/>
      </g>
      <!-- Bone ends -->
      <g fill="#F5EFE0">
        <circle cx="611" cy="82" r="1.5"/>
        <circle cx="633" cy="102" r="1.5"/>
        <circle cx="611" cy="102" r="1.5"/>
        <circle cx="633" cy="82" r="1.5"/>
      </g>
      <!-- Skull -->
      <circle cx="622" cy="91" r="5" fill="#F5EFE0"/>
      <!-- Eye sockets -->
      <circle cx="619.5" cy="90" r="1.3" fill="#2A2018"/>
      <circle cx="624.5" cy="90" r="1.3" fill="#2A2018"/>
      <!-- Nasal triangle -->
      <path d="M 622,93 L 620.5,95 L 623.5,95 Z" fill="#2A2018"/>
      <!-- Jaw line with teeth gaps -->
      <rect x="617.5" y="95.5" width="9" height="2" fill="#F5EFE0"/>
      <g stroke="#2A2018" stroke-width="0.7" stroke-linecap="butt">
        <line x1="619.5" y1="95.5" x2="619.5" y2="97.5"/>
        <line x1="622" y1="95.5" x2="622" y2="97.5"/>
        <line x1="624.5" y1="95.5" x2="624.5" y2="97.5"/>
      </g>
    </g>

    <!-- Mast -->
    <line x1="600" y1="115" x2="600" y2="340" stroke="#2A2018" stroke-width="4"/>

    <!-- Crow's nest -->
    <path d="M 580,118 L 620,118 L 618,135 L 582,135 Z"
          fill="#F5EFE0" stroke="#2A2018" stroke-width="2"/>
    <line x1="584" y1="122" x2="616" y2="122" stroke="#2A2018" stroke-width="1.5"/>

    <!-- ═══ TRIANGULAR MAINSAIL (dark pirate sail with skull) ═══ -->
    <!-- Gaff/boom along the back edge of the sail -->
    <line x1="600" y1="128" x2="712" y2="254" stroke="#2A2018" stroke-width="2" stroke-linecap="round"/>
    <!-- Boom at the foot -->
    <line x1="600" y1="280" x2="712" y2="254" stroke="#2A2018" stroke-width="2" stroke-linecap="round"/>

    <!-- The sail itself — large triangle leaning back from the mast -->
    <path d="M 600,128 Q 660,195 710,252 Q 660,275 600,278 Z"
          fill="#F0E8D0" stroke="#2A2018" stroke-width="2.5" stroke-linejoin="round"/>
    <!-- Reefing band across the sail -->
    <path d="M 600,205 Q 645,210 680,220" fill="none" stroke="#2A2018" stroke-width="0.9" stroke-dasharray="3 2"/>

    <!-- Small triangular staysail filling the gap between mainmast and jib -->
    <path d="M 600,130 Q 565,180 515,225 Q 555,228 600,222 Z"
          fill="#F0E8D0" stroke="#2A2018" stroke-width="1.8" stroke-linejoin="round"/>
    <line x1="515" y1="225" x2="600" y2="130" stroke="#2A2018" stroke-width="0.6" stroke-dasharray="2 2"/>

    <!-- Shrouds — side ropes below the sails -->
    <line x1="600" y1="285" x2="490" y2="340" stroke="#2A2018" stroke-width="1"/>
    <line x1="600" y1="285" x2="710" y2="340" stroke="#2A2018" stroke-width="1"/>

    <!-- Bowsprit — pole extending forward from the forecastle -->
    <line x1="445" y1="326" x2="378" y2="304" stroke="#2A2018" stroke-width="3" stroke-linecap="round"/>

    <!-- Jib sail — triangular headsail on the bowsprit -->
    <path d="M 445,326 L 383,306 L 588,140 Z"
          fill="#F0E8D0" stroke="#2A2018" stroke-width="2" stroke-linejoin="round"/>
    <!-- Jib stay (forestay line) -->
    <line x1="383" y1="306" x2="588" y2="140" stroke="#2A2018" stroke-width="0.8" stroke-dasharray="3 2"/>

    <!-- Deck line (main deck, between the fore- and stern-castles) -->
    <line x1="460" y1="340" x2="750" y2="340" stroke="#2A2018" stroke-width="2.5"/>

    <!-- Hull — galleon profile with raised fore- and stern-castles + curved bottom -->
    <path d="M 420,340 L 445,340 L 445,326 L 465,326 L 465,340 L 750,340 L 750,322 L 795,322 L 795,340 L 808,340 Q 788,400 600,405 Q 432,400 420,340 Z"
          fill="#F5EFE0" stroke="#2A2018" stroke-width="3" stroke-linejoin="round"/>

    <!-- Hull planks — follow the curved hull bottom without spilling past the edges -->
    <path d="M 445,355 Q 600,360 788,355" fill="none" stroke="#2A2018" stroke-width="1"/>
    <path d="M 470,372 Q 600,380 770,372" fill="none" stroke="#2A2018" stroke-width="1"/>
    <path d="M 510,388 Q 600,396 720,388" fill="none" stroke="#2A2018" stroke-width="1"/>

    <!-- Portholes along the hull -->
    <g fill="none" stroke="#2A2018" stroke-width="2">
      <circle cx="480" cy="362" r="6"/>
      <circle cx="535" cy="362" r="6"/>
      <circle cx="595" cy="362" r="6"/>
      <circle cx="655" cy="362" r="6"/>
      <circle cx="715" cy="362" r="6"/>
      <circle cx="770" cy="362" r="5"/>
    </g>

    <!-- Mizzenmast + spanker sail at the stern -->
    <line x1="775" y1="300" x2="775" y2="322" stroke="#2A2018" stroke-width="2.5"/>
    <path d="M 775,302 L 775,322 L 803,320 Z"
          fill="#F0E8D0" stroke="#2A2018" stroke-width="1.8" stroke-linejoin="round"/>

    <!-- Barrel/crate on deck (left) -->
    <g stroke="#2A2018" stroke-width="1.8" fill="none">
      <rect x="450" y="310" width="22" height="22"/>
      <line x1="461" y1="310" x2="461" y2="332"/>
      <line x1="450" y1="321" x2="472" y2="321"/>
    </g>

    <!-- Barrel (right) -->
    <g stroke="#2A2018" stroke-width="1.8" fill="#F5EFE0">
      <ellipse cx="740" cy="314" rx="10" ry="4"/>
      <path d="M 730,314 L 730,332 Q 740,336 750,332 L 750,314" fill="#F5EFE0"/>
      <line x1="730" y1="322" x2="750" y2="322" stroke-width="1"/>
    </g>

    <!-- ═══════════════════════════════════════════ -->
    <!-- STICK FIGURE 1 — LEFT (bandana pirate)     -->
    <!-- ═══════════════════════════════════════════ -->
    <g stroke="#2A2018" stroke-width="2.3" stroke-linecap="round" fill="none">
      <!-- Head -->
      <circle cx="515" cy="268" r="9" fill="#F5EFE0"/>
      <!-- Bandana -->
      <path d="M 506,265 Q 515,259 524,265 L 524,269 L 506,269 Z" fill="#2A2018" stroke="none"/>
      <!-- Bandana knot + tails -->
      <line x1="524" y1="267" x2="531" y2="273" stroke-width="2"/>
      <line x1="526" y1="265" x2="533" y2="269" stroke-width="1.5"/>
      <!-- Two eyes -->
      <circle cx="512" cy="270" r="1.1" fill="#2A2018" stroke="none"/>
      <circle cx="518" cy="270" r="1.1" fill="#2A2018" stroke="none"/>
      <!-- Smile curve -->
      <path d="M 511,274 Q 515,276 519,274" stroke-width="1" fill="none"/>
      <!-- Earring -->
      <circle cx="506" cy="272" r="1" stroke="#2A2018" stroke-width="0.7" fill="none"/>
      <!-- Body -->
      <line x1="515" y1="277" x2="515" y2="315"/>
      <!-- Legs (reach deck at y=340) -->
      <line x1="515" y1="315" x2="504" y2="340"/>
      <line x1="515" y1="315" x2="526" y2="340"/>
      <!-- Back arm -->
      <line x1="515" y1="287" x2="503" y2="302"/>

      <!-- SWORD ARM + CUTLASS — fist grips a proper hilt; curved filled blade -->
      <g>
        <animateTransform attributeName="transform" type="rotate"
                          values="-10 515 287; 8 515 287; -10 515 287; -16 515 287; -10 515 287"
                          dur="1.1s" repeatCount="indefinite"/>
        <!-- Forearm -->
        <line x1="515" y1="287" x2="533" y2="282"/>
        <!-- Fist holding the grip -->
        <circle cx="535" cy="281" r="2.3" fill="#F5EFE0" stroke="#2A2018" stroke-width="1.3"/>
        <!-- Pommel (rounded butt of hilt) -->
        <circle cx="533.5" cy="283" r="1.3" fill="#2A2018" stroke="none"/>
        <!-- Wrapped grip between fist and guard -->
        <line x1="537" y1="280" x2="542" y2="278.5" stroke="#2A2018" stroke-width="3.5" stroke-linecap="round"/>
        <!-- Crossguard (quillons) -->
        <line x1="540" y1="275" x2="545" y2="284" stroke="#2A2018" stroke-width="2.8" stroke-linecap="round"/>
        <!-- D-knuckle guard curving from crossguard back toward the pommel -->
        <path d="M 545,283 Q 549,288 540,286" stroke="#2A2018" stroke-width="1.4" fill="none" stroke-linecap="round"/>
        <!-- Cutlass blade — curved filled shape with a notched tip -->
        <path d="M 544,277 Q 578,261 605,248 L 613,244 L 614,248 L 611,251 Q 581,264 547,280 Z"
              fill="#F5EFE0" stroke="#2A2018" stroke-width="1.7" stroke-linejoin="round"/>
        <!-- Blade fuller (thin groove line) -->
        <path d="M 552,275 Q 580,262 605,251" stroke="#2A2018" stroke-width="0.6" fill="none" opacity="0.55"/>
      </g>
    </g>

    <!-- ═══════════════════════════════════════════ -->
    <!-- STICK FIGURE 2 — RIGHT (pirate hat + patch) -->
    <!-- ═══════════════════════════════════════════ -->
    <g stroke="#2A2018" stroke-width="2.3" stroke-linecap="round" fill="none">
      <!-- Head -->
      <circle cx="685" cy="268" r="9" fill="#F5EFE0"/>
      <!-- Tricorn hat -->
      <path d="M 670,262 Q 685,248 700,262 L 698,266 L 672,266 Z" fill="#2A2018" stroke="none"/>
      <!-- Hat brim underline -->
      <path d="M 672,264 Q 685,257 698,264" stroke-width="1.2" fill="none"/>
      <!-- Tiny skull on hat -->
      <circle cx="685" cy="258" r="1.4" fill="#F5EFE0" stroke="none"/>
      <circle cx="683.7" cy="257.5" r="0.3" fill="#2A2018" stroke="none"/>
      <circle cx="686.3" cy="257.5" r="0.3" fill="#2A2018" stroke="none"/>
      <!-- Eye patch (proper oval shape) -->
      <ellipse cx="681" cy="269" rx="3" ry="2.5" fill="#2A2018" stroke="none"/>
      <!-- Patch strap across forehead -->
      <line x1="678" y1="267" x2="692" y2="265" stroke-width="1"/>
      <!-- Good eye -->
      <circle cx="689" cy="270" r="1.2" fill="#2A2018" stroke="none"/>
      <!-- Smile curve -->
      <path d="M 681,274 Q 685,276 689,274" stroke-width="1" fill="none"/>
      <!-- Earring -->
      <circle cx="694" cy="273" r="1" stroke="#2A2018" stroke-width="0.7" fill="none"/>
      <!-- Body -->
      <line x1="685" y1="277" x2="685" y2="315"/>
      <!-- Legs (reach deck at y=340) -->
      <line x1="685" y1="315" x2="674" y2="340"/>
      <line x1="685" y1="315" x2="696" y2="340"/>
      <!-- Back arm -->
      <line x1="685" y1="287" x2="697" y2="302"/>

      <!-- SWORD ARM + CUTLASS — mirrored -->
      <g>
        <animateTransform attributeName="transform" type="rotate"
                          values="10 685 287; -8 685 287; 10 685 287; 16 685 287; 10 685 287"
                          dur="1.1s" repeatCount="indefinite"/>
        <!-- Forearm -->
        <line x1="685" y1="287" x2="667" y2="282"/>
        <!-- Fist -->
        <circle cx="665" cy="281" r="2.3" fill="#F5EFE0" stroke="#2A2018" stroke-width="1.3"/>
        <!-- Pommel -->
        <circle cx="666.5" cy="283" r="1.3" fill="#2A2018" stroke="none"/>
        <!-- Wrapped grip -->
        <line x1="663" y1="280" x2="658" y2="278.5" stroke="#2A2018" stroke-width="3.5" stroke-linecap="round"/>
        <!-- Crossguard -->
        <line x1="660" y1="275" x2="655" y2="284" stroke="#2A2018" stroke-width="2.8" stroke-linecap="round"/>
        <!-- D-knuckle guard (mirrored) -->
        <path d="M 655,283 Q 651,288 660,286" stroke="#2A2018" stroke-width="1.4" fill="none" stroke-linecap="round"/>
        <!-- Cutlass blade (mirrored, filled, notched tip) -->
        <path d="M 656,277 Q 622,261 595,248 L 587,244 L 586,248 L 589,251 Q 619,264 653,280 Z"
              fill="#F5EFE0" stroke="#2A2018" stroke-width="1.7" stroke-linejoin="round"/>
        <!-- Blade fuller -->
        <path d="M 648,275 Q 620,262 595,251" stroke="#2A2018" stroke-width="0.6" fill="none" opacity="0.55"/>
      </g>
    </g>

    <!-- CLASH SPARKS at the cutlass crossing -->
    <g transform="translate(600 249)" stroke="#2A2018" stroke-width="2" stroke-linecap="round">
      <g>
        <animate attributeName="opacity" values="0;0;0;1;0;0" dur="1.1s" repeatCount="indefinite"/>
        <line x1="0" y1="0" x2="-8" y2="-8"/>
        <line x1="0" y1="0" x2="8" y2="-8"/>
        <line x1="0" y1="0" x2="-11" y2="0"/>
        <line x1="0" y1="0" x2="11" y2="0"/>
        <line x1="0" y1="0" x2="0" y2="-11"/>
        <line x1="0" y1="0" x2="-6" y2="6"/>
        <line x1="0" y1="0" x2="6" y2="6"/>
      </g>
    </g>
  </g>

  <!-- Ocean — two layered waves in muted blue-grey -->
  <g clip-path="inset(0)">
    <path fill="#B5C9D4" d="M -40,355 Q 40,345 120,355 Q 200,365 280,355 Q 360,345 440,355 Q 520,365 600,355 Q 680,345 760,355 Q 840,365 920,355 Q 1000,345 1080,355 Q 1160,365 1240,355 L 1240,400 L -40,400 Z">
      <animate attributeName="d" dur="5s" repeatCount="indefinite"
        values="M -40,355 Q 40,345 120,355 Q 200,365 280,355 Q 360,345 440,355 Q 520,365 600,355 Q 680,345 760,355 Q 840,365 920,355 Q 1000,345 1080,355 Q 1160,365 1240,355 L 1240,400 L -40,400 Z;
                M -40,355 Q 40,365 120,355 Q 200,345 280,355 Q 360,365 440,355 Q 520,345 600,355 Q 680,365 760,355 Q 840,345 920,355 Q 1000,365 1080,355 Q 1160,345 1240,355 L 1240,400 L -40,400 Z;
                M -40,355 Q 40,345 120,355 Q 200,365 280,355 Q 360,345 440,355 Q 520,365 600,355 Q 680,345 760,355 Q 840,365 920,355 Q 1000,345 1080,355 Q 1160,365 1240,355 L 1240,400 L -40,400 Z"/>
    </path>
    <path fill="#93AEBF" opacity="0.9" d="M -40,375 Q 60,370 160,375 Q 260,380 360,375 Q 460,370 560,375 Q 660,380 760,375 Q 860,370 960,375 Q 1060,380 1160,375 Q 1240,370 1240,375 L 1240,400 L -40,400 Z">
      <animate attributeName="d" dur="4s" repeatCount="indefinite"
        values="M -40,375 Q 60,370 160,375 Q 260,380 360,375 Q 460,370 560,375 Q 660,380 760,375 Q 860,370 960,375 Q 1060,380 1160,375 Q 1240,370 1240,375 L 1240,400 L -40,400 Z;
                M -40,375 Q 60,380 160,375 Q 260,370 360,375 Q 460,380 560,375 Q 660,370 760,375 Q 860,380 960,375 Q 1060,370 1160,375 Q 1240,380 1240,375 L 1240,400 L -40,400 Z;
                M -40,375 Q 60,370 160,375 Q 260,380 360,375 Q 460,370 560,375 Q 660,380 760,375 Q 860,370 960,375 Q 1060,380 1160,375 Q 1240,370 1240,375 L 1240,400 L -40,400 Z"/>
    </path>

    <!-- Wave crest marks — tiny ˘ shapes scattered across the water for texture -->
    <g stroke="#2A2018" fill="none" stroke-linecap="round">
      <!-- Upper water (smaller, fainter crests just under the surface) -->
      <g stroke-width="0.8" opacity="0.4">
        <path d="M 80,360 Q 84,358 88,360"/>
        <path d="M 155,363 Q 160,361 165,363"/>
        <path d="M 245,358 Q 251,356 257,358"/>
        <path d="M 320,362 Q 326,360 332,362"/>
        <path d="M 395,358 Q 401,356 407,358"/>
        <path d="M 865,362 Q 871,360 877,362"/>
        <path d="M 940,358 Q 946,356 952,358"/>
        <path d="M 1030,362 Q 1036,360 1042,362"/>
        <path d="M 1110,358 Q 1116,356 1122,358"/>
      </g>
      <!-- Mid water -->
      <g stroke-width="0.9" opacity="0.5">
        <path d="M 55,378 Q 63,375 71,378"/>
        <path d="M 140,382 Q 148,379 156,382"/>
        <path d="M 215,376 Q 223,373 231,376"/>
        <path d="M 295,380 Q 303,377 311,380"/>
        <path d="M 370,376 Q 378,373 386,376"/>
        <path d="M 840,380 Q 848,377 856,380"/>
        <path d="M 915,376 Q 923,373 931,376"/>
        <path d="M 990,380 Q 998,377 1006,380"/>
        <path d="M 1065,376 Q 1073,373 1081,376"/>
        <path d="M 1140,380 Q 1148,377 1156,380"/>
      </g>
      <!-- Deeper water (scattered, smaller) -->
      <g stroke-width="0.8" opacity="0.45">
        <path d="M 100,392 Q 106,390 112,392"/>
        <path d="M 180,395 Q 186,393 192,395"/>
        <path d="M 260,390 Q 266,388 272,390"/>
        <path d="M 340,393 Q 346,391 352,393"/>
        <path d="M 880,395 Q 886,393 892,395"/>
        <path d="M 960,392 Q 966,390 972,392"/>
        <path d="M 1040,395 Q 1046,393 1052,395"/>
        <path d="M 1120,390 Q 1126,388 1132,390"/>
      </g>
    </g>
  </g>

  <!-- Shark swimming right-to-left, mirrored so head leads. Subtle bob offsets the airship's rhythm -->
  <g transform="translate(1200, 0) scale(-1, 1)">
    <g>
      <!-- Horizontal drift (right-to-left in screen space due to outer mirror) -->
      <animateTransform attributeName="transform" type="translate"
                        values="-260,0; 1280,0"
                        dur="34s" repeatCount="indefinite"/>
      <g>
        <!-- Vertical bob — different period from airship so they don't look synced -->
        <animateTransform attributeName="transform" type="translate"
                          values="0,0; 0,3; 0,-2; 0,2; 0,0"
                          dur="3.7s" repeatCount="indefinite"/>
        <!-- Body silhouette (outline only — water shows through) -->
        <path d="M 228,362 Q 222,355 208,352 Q 198,350 192,352 L 175,330 L 172,352 Q 160,355 148,358 L 141,349 L 135,358 Q 125,360 115,361 L 95,340 L 108,361 L 100,380 L 115,361 Q 140,374 175,373 Q 210,372 220,368 Q 225,365 228,362 Z"
              fill="none" stroke="#2A2018" stroke-width="2" stroke-linejoin="round"/>
        <!-- Pectoral fin hanging below the body -->
        <path d="M 195,370 L 178,382 L 210,370 Z"
              fill="none" stroke="#2A2018" stroke-width="1.8" stroke-linejoin="round"/>
        <!-- Gill slits -->
        <g stroke="#2A2018" stroke-width="1" fill="none" stroke-linecap="round">
          <line x1="213" y1="358" x2="211" y2="365"/>
          <line x1="209" y1="358" x2="207" y2="365"/>
          <line x1="205" y1="358" x2="203" y2="365"/>
          <line x1="201" y1="358" x2="199" y2="365"/>
          <line x1="197" y1="358" x2="195" y2="365"/>
        </g>
        <!-- Eye -->
        <circle cx="219" cy="359" r="1.5" fill="#2A2018"/>
        <!-- Toothy grin -->
        <path d="M 221,369 L 223,371 L 225,369 L 227,371 L 229,369"
              stroke="#2A2018" stroke-width="0.9" fill="none"/>
      </g>
    </g>
  </g>

  <!-- ═══════════════════════════════════════════════════════ -->
  <!-- STEAMPUNK AIRSHIP — drifts across the upper sky         -->
  <!-- ═══════════════════════════════════════════════════════ -->
  <g>
    <!-- Horizontal drift: 50s from off-screen left to off-screen right -->
    <animateTransform attributeName="transform" type="translate"
                      values="-350,0; 1500,0"
                      dur="50s" repeatCount="indefinite"/>
    <g>
      <!-- Gentle vertical bob -->
      <animateTransform attributeName="transform" type="translate"
                        values="0,0; 0,-4; 0,2; 0,-2; 0,0"
                        dur="4.5s" repeatCount="indefinite"/>

      <!-- Rope from gondola stern, pulling the ribbon along behind -->
      <line x1="165" y1="115" x2="110" y2="118" stroke="#2A2018" stroke-width="1.3" stroke-linecap="round"/>

      <!-- Ribbon — trailing at the end of the rope, waves in the wind -->
      <path d="M 110,108 Q 60,104 10,108 Q -30,112 -70,108 L -70,130 Q -30,134 10,130 Q 60,126 110,130 Z"
            fill="#F0E8D0" stroke="#2A2018" stroke-width="1.5" stroke-linejoin="round">
        <animate attributeName="d" dur="2s" repeatCount="indefinite"
          values="M 110,108 Q 60,104 10,108 Q -30,112 -70,108 L -70,130 Q -30,134 10,130 Q 60,126 110,130 Z;
                  M 110,108 Q 60,112 10,108 Q -30,104 -70,108 L -70,130 Q -30,126 10,130 Q 60,134 110,130 Z;
                  M 110,108 Q 60,104 10,108 Q -30,112 -70,108 L -70,130 Q -30,134 10,130 Q 60,126 110,130 Z"/>
      </path>
      <text x="20" y="123" font-family="'Courier New', Courier, monospace"
            font-size="10" font-weight="900"
            fill="#2A2018" stroke="#2A2018" stroke-width="0.4"
            text-anchor="middle">NO TESTS, JUST PUSH &amp; COMMIT</text>

      <!-- Envelope (gas balloon) centered at (200, 75) -->
      <ellipse cx="200" cy="75" rx="75" ry="20"
               fill="#F5EFE0" stroke="#2A2018" stroke-width="2.5"/>

      <!-- Diamond lattice pattern on envelope -->
      <g stroke="#2A2018" stroke-width="0.8" fill="none" opacity="0.6" stroke-linecap="round">
        <!-- Diagonals going up-right (NW to SE across envelope) -->
        <path d="M 140,85 Q 165,72 195,60"/>
        <path d="M 160,90 Q 190,75 225,60"/>
        <path d="M 185,92 Q 215,77 250,62"/>
        <path d="M 215,92 Q 240,80 265,70"/>
        <!-- Diagonals going up-left (NE to SW) -->
        <path d="M 140,65 Q 165,78 195,90"/>
        <path d="M 160,60 Q 190,75 225,90"/>
        <path d="M 185,58 Q 215,73 250,88"/>
        <path d="M 215,58 Q 240,70 265,80"/>
      </g>
      <!-- Hull seam across envelope -->
      <line x1="130" y1="75" x2="270" y2="75"
            stroke="#2A2018" stroke-width="0.8" stroke-dasharray="3 2"/>

      <!-- Rigging from envelope down to gondola — denser, spread to the ends -->
      <line x1="138" y1="85" x2="165" y2="110" stroke="#2A2018" stroke-width="1"/>
      <line x1="160" y1="92" x2="170" y2="110" stroke="#2A2018" stroke-width="1.1"/>
      <line x1="180" y1="94" x2="180" y2="110" stroke="#2A2018" stroke-width="1.1"/>
      <line x1="200" y1="95" x2="200" y2="110" stroke="#2A2018" stroke-width="1.1"/>
      <line x1="220" y1="94" x2="220" y2="110" stroke="#2A2018" stroke-width="1.1"/>
      <line x1="240" y1="92" x2="230" y2="110" stroke="#2A2018" stroke-width="1.1"/>
      <line x1="262" y1="85" x2="235" y2="110" stroke="#2A2018" stroke-width="1"/>

      <!-- Gondola (cabin) -->
      <path d="M 165,110 L 235,110 L 240,128 L 160,128 Z"
            fill="#F0E8D0" stroke="#2A2018" stroke-width="2" stroke-linejoin="round"/>

      <!-- Portholes -->
      <g fill="none" stroke="#2A2018" stroke-width="1.3">
        <circle cx="178" cy="119" r="3"/>
        <circle cx="200" cy="119" r="3"/>
        <circle cx="222" cy="119" r="3"/>
      </g>

      <!-- Exposed gear/cog on gondola stern -->
      <circle cx="246" cy="119" r="4" fill="#F5EFE0" stroke="#2A2018" stroke-width="0.9"/>
      <g stroke="#2A2018" stroke-width="0.8" fill="none" stroke-linecap="round">
        <line x1="241" y1="119" x2="251" y2="119"/>
        <line x1="246" y1="114" x2="246" y2="124"/>
        <line x1="242.5" y1="115.5" x2="249.5" y2="122.5"/>
        <line x1="242.5" y1="122.5" x2="249.5" y2="115.5"/>
      </g>

      <!-- Smokestack on top of envelope -->
      <rect x="208" y="46" width="7" height="10" fill="#F0E8D0" stroke="#2A2018" stroke-width="1"/>
      <rect x="207" y="44" width="9" height="3" fill="#2A2018"/>

      <!-- Smoke puffs rising and drifting back -->
      <g fill="#F5EFE0" stroke="#2A2018" stroke-width="0.9">
        <circle cx="211" cy="42" r="3">
          <animate attributeName="cx" values="211;180" dur="3s" repeatCount="indefinite"/>
          <animate attributeName="cy" values="42;28" dur="3s" repeatCount="indefinite"/>
          <animate attributeName="opacity" values="0.85;0" dur="3s" repeatCount="indefinite"/>
          <animate attributeName="r" values="3;8" dur="3s" repeatCount="indefinite"/>
        </circle>
        <circle cx="211" cy="42" r="3">
          <animate attributeName="cx" values="211;170" dur="3s" repeatCount="indefinite" begin="1s"/>
          <animate attributeName="cy" values="42;22" dur="3s" repeatCount="indefinite" begin="1s"/>
          <animate attributeName="opacity" values="0.85;0" dur="3s" repeatCount="indefinite" begin="1s"/>
          <animate attributeName="r" values="3;9" dur="3s" repeatCount="indefinite" begin="1s"/>
        </circle>
        <circle cx="211" cy="42" r="3">
          <animate attributeName="cx" values="211;175" dur="3s" repeatCount="indefinite" begin="2s"/>
          <animate attributeName="cy" values="42;20" dur="3s" repeatCount="indefinite" begin="2s"/>
          <animate attributeName="opacity" values="0.85;0" dur="3s" repeatCount="indefinite" begin="2s"/>
          <animate attributeName="r" values="3;10" dur="3s" repeatCount="indefinite" begin="2s"/>
        </circle>
      </g>

      <!-- Rear stabilizer fins (top + bottom) -->
      <path d="M 128,67 L 112,50 L 130,63 Z" fill="#F0E8D0" stroke="#2A2018" stroke-width="1.3" stroke-linejoin="round"/>
      <path d="M 128,83 L 112,100 L 130,87 Z" fill="#F0E8D0" stroke="#2A2018" stroke-width="1.3" stroke-linejoin="round"/>

      <!-- Propeller at rear — spins continuously -->
      <g transform="translate(120 75)">
        <g>
          <animateTransform attributeName="transform" type="rotate"
                            values="0;360" dur="0.35s" repeatCount="indefinite"/>
          <line x1="0" y1="-9" x2="0" y2="9" stroke="#2A2018" stroke-width="2"/>
          <line x1="-9" y1="0" x2="9" y2="0" stroke="#2A2018" stroke-width="2"/>
        </g>
        <circle r="2" fill="#2A2018"/>
      </g>

    </g>
  </g>

  <!-- Name title at top -->
  <text x="600" y="52" text-anchor="middle"
        font-family="Palatino, 'Palatino Linotype', Georgia, serif"
        font-size="42" font-weight="bold"
        fill="#2A2018" letter-spacing="6">PsycheBear</text>
</svg>
