<svg viewBox="0 0 1200 400" xmlns="http://www.w3.org/2000/svg" role="img" aria-label="Two stick figures sword fighting on a pirate ship">
  <!-- Parchment background -->
  <rect width="1200" height="400" fill="#F5EFE0"/>

  <!-- Subtle tea-stain texture -->
  <circle cx="150" cy="100" r="90" fill="#EADFB8" opacity="0.35"/>
  <circle cx="1050" cy="320" r="140" fill="#EADFB8" opacity="0.35"/>
  <circle cx="700" cy="60" r="60" fill="#EADFB8" opacity="0.25"/>

  <!-- Moon -->
  <circle cx="980" cy="90" r="32" fill="none" stroke="#2A2018" stroke-width="2"/>
  <circle cx="970" cy="85" r="4" fill="none" stroke="#2A2018" stroke-width="1.5"/>
  <circle cx="990" cy="100" r="3" fill="none" stroke="#2A2018" stroke-width="1.5"/>

  <!-- Clouds -->
  <g fill="none" stroke="#2A2018" stroke-width="2" stroke-linecap="round">
    <path d="M 100,80 Q 130,62 160,80 Q 180,70 200,85"/>
    <path d="M 280,130 Q 310,110 340,130"/>
    <path d="M 850,70 Q 880,50 910,70 Q 930,60 950,75"/>
  </g>

  <!-- Distant birds -->
  <g fill="none" stroke="#2A2018" stroke-width="2" stroke-linecap="round">
    <path d="M 420,95 Q 428,88 436,95 Q 444,88 452,95"/>
    <path d="M 510,75 Q 517,69 524,75 Q 531,69 538,75"/>
    <path d="M 760,110 Q 767,104 774,110 Q 781,104 788,110"/>
  </g>

  <!-- Ocean — two layered waves in muted blue-grey -->
  <g clip-path="inset(0)">
    <path fill="#B5C9D4" d="M -40,355 Q 40,345 120,355 Q 200,365 280,355 Q 360,345 440,355 Q 520,365 600,355 Q 680,345 760,355 Q 840,365 920,355 Q 1000,345 1080,355 Q 1160,365 1240,355 L 1240,400 L -40,400 Z">
      <animate attributeName="d" dur="5s" repeatCount="indefinite"
        values="M -40,355 Q 40,345 120,355 Q 200,365 280,355 Q 360,345 440,355 Q 520,365 600,355 Q 680,345 760,355 Q 840,365 920,355 Q 1000,345 1080,355 Q 1160,365 1240,355 L 1240,400 L -40,400 Z;
                M -40,355 Q 40,365 120,355 Q 200,345 280,355 Q 360,365 440,355 Q 520,345 600,355 Q 680,365 760,355 Q 840,345 920,355 Q 1000,365 1080,355 Q 1160,345 1240,355 L 1240,400 L -40,400 Z;
                M -40,355 Q 40,345 120,355 Q 200,365 280,355 Q 360,345 440,355 Q 520,365 600,355 Q 680,345 760,355 Q 840,365 920,355 Q 1000,345 1080,355 Q 1160,365 1240,355 L 1240,400 L -40,400 Z"/>
    </path>
    <path fill="#93AEBF" opacity="0.9" d="M -40,375 Q 60,370 160,375 Q 260,380 360,375 Q 460,370 560,375 Q 660,380 760,375 Q 860,370 960,375 Q 1060,380 1160,375 Q 1240,370 1240,375 L 1240,400 L -40,400 Z">
      <animate attributeName="d" dur="4s" repeatCount="indefinite"
        values="M -40,375 Q 60,370 160,375 Q 260,380 360,375 Q 460,370 560,375 Q 660,380 760,375 Q 860,370 960,375 Q 1060,380 1160,375 Q 1240,370 1240,375 L 1240,400 L -40,400 Z;
                M -40,375 Q 60,380 160,375 Q 260,370 360,375 Q 460,380 560,375 Q 660,370 760,375 Q 860,380 960,375 Q 1060,370 1160,375 Q 1240,380 1240,375 L 1240,400 L -40,400 Z;
                M -40,375 Q 60,370 160,375 Q 260,380 360,375 Q 460,370 560,375 Q 660,380 760,375 Q 860,370 960,375 Q 1060,380 1160,375 Q 1240,370 1240,375 L 1240,400 L -40,400 Z"/>
    </path>

    <!-- Floating ripple marks — scattered ink ~~ in the water -->
    <g stroke="#2A2018" stroke-width="0.9" fill="none" stroke-linecap="round" opacity="0.5">
      <path d="M 60,385 Q 70,382 80,385"/>
      <path d="M 260,390 Q 270,388 280,390"/>
      <path d="M 340,385 Q 350,383 360,385"/>
      <path d="M 540,388 Q 550,385 560,388"/>
      <path d="M 720,392 Q 730,389 740,392"/>
      <path d="M 860,385 Q 870,382 880,385"/>
      <path d="M 980,390 Q 990,388 1000,390"/>
      <path d="M 1120,388 Q 1130,385 1140,388"/>
    </g>
  </g>

  <!-- Shark swimming across — full anatomy, facing right (outside ship group) -->
  <g>
    <animateTransform attributeName="transform" type="translate"
                      values="-260,0; 1280,0"
                      dur="30s" repeatCount="indefinite"/>
    <!-- Body silhouette: snout, dorsal fin, second dorsal, tail, belly -->
    <path d="M 228,362 Q 222,355 208,352 Q 198,350 192,352 L 175,330 L 172,352 Q 160,355 148,358 L 141,349 L 135,358 Q 125,360 115,361 L 95,340 L 108,361 L 100,380 L 115,361 Q 140,374 175,373 Q 210,372 220,368 Q 225,365 228,362 Z"
          fill="#F5EFE0" stroke="#2A2018" stroke-width="2" stroke-linejoin="round"/>
    <!-- Pectoral fin hanging below the body -->
    <path d="M 195,370 L 178,382 L 210,370 Z"
          fill="#F5EFE0" stroke="#2A2018" stroke-width="1.8" stroke-linejoin="round"/>
    <!-- Gill slits (five diagonals behind the head) -->
    <g stroke="#2A2018" stroke-width="1" fill="none" stroke-linecap="round">
      <line x1="213" y1="358" x2="211" y2="365"/>
      <line x1="209" y1="358" x2="207" y2="365"/>
      <line x1="205" y1="358" x2="203" y2="365"/>
      <line x1="201" y1="358" x2="199" y2="365"/>
      <line x1="197" y1="358" x2="195" y2="365"/>
    </g>
    <!-- Eye -->
    <circle cx="219" cy="359" r="1.5" fill="#2A2018"/>
    <!-- Tiny toothy grin -->
    <path d="M 221,369 L 223,371 L 225,369 L 227,371 L 229,369"
          stroke="#2A2018" stroke-width="0.9" fill="none"/>
  </g>

  <!-- The whole ship group rocks gently -->
  <g>
    <animateTransform attributeName="transform" type="rotate"
                      values="-2 600 360; 2 600 360; -2 600 360"
                      dur="5s" repeatCount="indefinite"/>

    <!-- Flag — waves -->
    <line x1="600" y1="70" x2="600" y2="115" stroke="#2A2018" stroke-width="2.5"/>
    <path fill="#2A2018" d="M 600,75 L 648,82 L 642,95 L 648,108 L 600,100 Z">
      <animate attributeName="d" dur="1.8s" repeatCount="indefinite"
        values="M 600,75 L 648,82 L 642,95 L 648,108 L 600,100 Z;
                M 600,75 L 648,72 L 650,95 L 648,100 L 600,100 Z;
                M 600,75 L 648,82 L 642,95 L 648,108 L 600,100 Z"/>
    </path>
    <!-- Skull + crossbones on flag -->
    <circle cx="622" cy="90" r="3.5" fill="#F5EFE0"/>
    <circle cx="620" cy="89" r="0.8" fill="#2A2018"/>
    <circle cx="624" cy="89" r="0.8" fill="#2A2018"/>
    <rect x="618" y="93" width="8" height="1.5" fill="#F5EFE0"/>
    <line x1="617" y1="97" x2="627" y2="97" stroke="#F5EFE0" stroke-width="1.2"/>

    <!-- Mast -->
    <line x1="600" y1="115" x2="600" y2="340" stroke="#2A2018" stroke-width="4"/>

    <!-- Crow's nest -->
    <path d="M 580,118 L 620,118 L 618,135 L 582,135 Z"
          fill="#F5EFE0" stroke="#2A2018" stroke-width="2"/>
    <line x1="584" y1="122" x2="616" y2="122" stroke="#2A2018" stroke-width="1.5"/>

    <!-- Sails (two panels) -->
    <path d="M 600,140 Q 540,175 528,240 Q 540,265 600,275 Z"
          fill="#F0E8D0" stroke="#2A2018" stroke-width="2.5" stroke-linejoin="round"/>
    <path d="M 600,140 Q 660,175 672,240 Q 660,265 600,275 Z"
          fill="#F0E8D0" stroke="#2A2018" stroke-width="2.5" stroke-linejoin="round"/>
    <!-- Sail stitching -->
    <line x1="600" y1="140" x2="600" y2="275" stroke="#2A2018" stroke-width="1" stroke-dasharray="2 2"/>
    <path d="M 545,180 Q 600,195 655,180" fill="none" stroke="#2A2018" stroke-width="1" stroke-dasharray="2 2"/>
    <path d="M 538,220 Q 600,232 662,220" fill="none" stroke="#2A2018" stroke-width="1" stroke-dasharray="2 2"/>

    <!-- Ropes from mast -->
    <line x1="600" y1="118" x2="460" y2="330" stroke="#2A2018" stroke-width="1.5"/>
    <line x1="600" y1="118" x2="740" y2="330" stroke="#2A2018" stroke-width="1.5"/>

    <!-- Deck line -->
    <line x1="435" y1="340" x2="765" y2="340" stroke="#2A2018" stroke-width="2.5"/>

    <!-- Railing posts -->
    <g stroke="#2A2018" stroke-width="2">
      <line x1="440" y1="325" x2="440" y2="340"/>
      <line x1="478" y1="325" x2="478" y2="340"/>
      <line x1="555" y1="325" x2="555" y2="340"/>
      <line x1="645" y1="325" x2="645" y2="340"/>
      <line x1="722" y1="325" x2="722" y2="340"/>
      <line x1="760" y1="325" x2="760" y2="340"/>
    </g>
    <line x1="438" y1="325" x2="762" y2="325" stroke="#2A2018" stroke-width="2.5"/>

    <!-- Hull -->
    <path d="M 430,340 L 770,340 L 738,388 L 462,388 Z"
          fill="#F5EFE0" stroke="#2A2018" stroke-width="3" stroke-linejoin="round"/>

    <!-- Hull planks (horizontal) -->
    <line x1="450" y1="352" x2="750" y2="352" stroke="#2A2018" stroke-width="1"/>
    <line x1="455" y1="364" x2="745" y2="364" stroke="#2A2018" stroke-width="1"/>
    <line x1="460" y1="376" x2="740" y2="376" stroke="#2A2018" stroke-width="1"/>

    <!-- Portholes -->
    <g fill="none" stroke="#2A2018" stroke-width="2">
      <circle cx="490" cy="362" r="6"/>
      <circle cx="545" cy="362" r="6"/>
      <circle cx="600" cy="362" r="6"/>
      <circle cx="655" cy="362" r="6"/>
      <circle cx="710" cy="362" r="6"/>
    </g>

    <!-- Barrel/crate on deck (left) -->
    <g stroke="#2A2018" stroke-width="1.8" fill="none">
      <rect x="450" y="310" width="22" height="22"/>
      <line x1="461" y1="310" x2="461" y2="332"/>
      <line x1="450" y1="321" x2="472" y2="321"/>
    </g>

    <!-- Barrel (right) -->
    <g stroke="#2A2018" stroke-width="1.8" fill="#F5EFE0">
      <ellipse cx="740" cy="314" rx="10" ry="4"/>
      <path d="M 730,314 L 730,332 Q 740,336 750,332 L 750,314" fill="#F5EFE0"/>
      <line x1="730" y1="322" x2="750" y2="322" stroke-width="1"/>
    </g>

    <!-- ═══════════════════════════════════════════ -->
    <!-- STICK FIGURE 1 — LEFT (bandana)            -->
    <!-- ═══════════════════════════════════════════ -->
    <g stroke="#2A2018" stroke-width="2.8" stroke-linecap="round" fill="none">
      <!-- Head -->
      <circle cx="515" cy="260" r="10" fill="#F5EFE0"/>
      <!-- Bandana -->
      <path d="M 505,258 Q 515,252 525,258 L 525,262 L 505,262 Z" fill="#2A2018" stroke="none"/>
      <line x1="524" y1="262" x2="532" y2="270" stroke-width="2.5"/>
      <line x1="526" y1="260" x2="534" y2="265" stroke-width="2"/>
      <!-- Eye -->
      <circle cx="518" cy="264" r="1" fill="#2A2018" stroke="none"/>
      <!-- Body -->
      <line x1="515" y1="270" x2="515" y2="315"/>
      <!-- Legs (stance) -->
      <line x1="515" y1="315" x2="505" y2="338"/>
      <line x1="515" y1="315" x2="527" y2="338"/>
      <!-- Back arm (static, behind body) -->
      <line x1="515" y1="282" x2="500" y2="302"/>

      <!-- SWORD ARM + SWORD — animated swing -->
      <g>
        <animateTransform attributeName="transform" type="rotate"
                          values="-35 515 282; -20 515 282; -35 515 282; -50 515 282; -35 515 282"
                          dur="1.1s" repeatCount="indefinite"/>
        <!-- Forearm -->
        <line x1="515" y1="282" x2="543" y2="276"/>
        <!-- Crossguard -->
        <line x1="540" y1="270" x2="546" y2="282" stroke-width="3.5"/>
        <!-- Blade -->
        <line x1="543" y1="276" x2="596" y2="258"/>
        <!-- Blade tip flick -->
        <line x1="592" y1="259" x2="600" y2="256" stroke-width="2"/>
      </g>
    </g>

    <!-- ═══════════════════════════════════════════ -->
    <!-- STICK FIGURE 2 — RIGHT (pirate hat, eye patch) -->
    <!-- ═══════════════════════════════════════════ -->
    <g stroke="#2A2018" stroke-width="2.8" stroke-linecap="round" fill="none">
      <!-- Head -->
      <circle cx="685" cy="260" r="10" fill="#F5EFE0"/>
      <!-- Pirate hat -->
      <path d="M 670,250 Q 685,238 700,250 L 700,254 L 670,254 Z" fill="#2A2018" stroke="none"/>
      <path d="M 672,248 Q 685,240 698,248" stroke-width="1.5"/>
      <!-- Tiny skull on hat -->
      <circle cx="685" cy="246" r="1.2" fill="#F5EFE0" stroke="none"/>
      <!-- Eye patch -->
      <rect x="679" y="259" width="9" height="4" fill="#2A2018" stroke="none"/>
      <line x1="675" y1="258" x2="695" y2="258" stroke-width="1"/>
      <!-- Other eye -->
      <circle cx="691" cy="264" r="1" fill="#2A2018" stroke="none"/>
      <!-- Body -->
      <line x1="685" y1="270" x2="685" y2="315"/>
      <!-- Legs -->
      <line x1="685" y1="315" x2="675" y2="338"/>
      <line x1="685" y1="315" x2="697" y2="338"/>
      <!-- Back arm -->
      <line x1="685" y1="282" x2="700" y2="302"/>

      <!-- SWORD ARM + SWORD — swings opposite to figure 1 -->
      <g>
        <animateTransform attributeName="transform" type="rotate"
                          values="35 685 282; 20 685 282; 35 685 282; 50 685 282; 35 685 282"
                          dur="1.1s" repeatCount="indefinite"/>
        <!-- Forearm -->
        <line x1="685" y1="282" x2="657" y2="276"/>
        <!-- Crossguard -->
        <line x1="660" y1="270" x2="654" y2="282" stroke-width="3.5"/>
        <!-- Blade -->
        <line x1="657" y1="276" x2="604" y2="258"/>
        <!-- Blade tip flick -->
        <line x1="608" y1="259" x2="600" y2="256" stroke-width="2"/>
      </g>
    </g>

    <!-- CLASH SPARKS — appear intermittently where swords meet -->
    <g transform="translate(600 258)" stroke="#2A2018" stroke-width="2.2" stroke-linecap="round">
      <g>
        <animate attributeName="opacity" values="0;0;0;1;0;0" dur="1.1s" repeatCount="indefinite"/>
        <line x1="0" y1="0" x2="-10" y2="-10"/>
        <line x1="0" y1="0" x2="10" y2="-10"/>
        <line x1="0" y1="0" x2="-14" y2="0"/>
        <line x1="0" y1="0" x2="14" y2="0"/>
        <line x1="0" y1="0" x2="0" y2="-14"/>
        <line x1="0" y1="0" x2="-8" y2="8"/>
        <line x1="0" y1="0" x2="8" y2="8"/>
      </g>
    </g>
  </g>

  <!-- ═══════════════════════════════════════════════════════ -->
  <!-- STEAMPUNK AIRSHIP — drifts across the upper sky         -->
  <!-- ═══════════════════════════════════════════════════════ -->
  <g>
    <!-- Horizontal drift: 50s from off-screen left to off-screen right -->
    <animateTransform attributeName="transform" type="translate"
                      values="-350,0; 1500,0"
                      dur="50s" repeatCount="indefinite"/>
    <g>
      <!-- Gentle vertical bob -->
      <animateTransform attributeName="transform" type="translate"
                        values="0,0; 0,-4; 0,2; 0,-2; 0,0"
                        dur="4.5s" repeatCount="indefinite"/>

      <!-- Trailing ribbon — attached directly to the gondola stern, waves in the wind -->
      <!-- Two short tie cords anchor it to the gondola corner -->
      <line x1="162" y1="115" x2="155" y2="120" stroke="#2A2018" stroke-width="1"/>
      <line x1="162" y1="127" x2="155" y2="140" stroke="#2A2018" stroke-width="1"/>
      <path d="M 160,120 Q 110,116 60,120 Q 10,124 -40,120 Q -90,116 -140,120 L -140,142 Q -90,138 -40,142 Q 10,146 60,142 Q 110,138 160,142 Z"
            fill="#F0E8D0" stroke="#2A2018" stroke-width="1.5" stroke-linejoin="round">
        <animate attributeName="d" dur="2s" repeatCount="indefinite"
          values="M 160,120 Q 110,116 60,120 Q 10,124 -40,120 Q -90,116 -140,120 L -140,142 Q -90,138 -40,142 Q 10,146 60,142 Q 110,138 160,142 Z;
                  M 160,120 Q 110,124 60,120 Q 10,116 -40,120 Q -90,124 -140,120 L -140,142 Q -90,146 -40,142 Q 10,138 60,142 Q 110,146 160,142 Z;
                  M 160,120 Q 110,116 60,120 Q 10,124 -40,120 Q -90,116 -140,120 L -140,142 Q -90,138 -40,142 Q 10,146 60,142 Q 110,138 160,142 Z"/>
      </path>
      <text x="10" y="134" font-family="'Courier New', Courier, monospace"
            font-size="10" font-weight="bold"
            fill="#2A2018" text-anchor="middle">NO TESTS, JUST PUSH &amp; COMMIT</text>

      <!-- Envelope (gas balloon) centered at (200, 75) -->
      <ellipse cx="200" cy="75" rx="75" ry="20"
               fill="#F5EFE0" stroke="#2A2018" stroke-width="2.5"/>

      <!-- Envelope rivets along the top seam -->
      <g fill="#2A2018">
        <circle cx="140" cy="62" r="1"/>
        <circle cx="160" cy="58" r="1"/>
        <circle cx="180" cy="56" r="1"/>
        <circle cx="200" cy="55" r="1"/>
        <circle cx="220" cy="56" r="1"/>
        <circle cx="240" cy="58" r="1"/>
        <circle cx="260" cy="62" r="1"/>
      </g>
      <!-- Hull seam across envelope -->
      <line x1="130" y1="75" x2="270" y2="75"
            stroke="#2A2018" stroke-width="0.8" stroke-dasharray="3 2"/>

      <!-- Rigging from envelope down to gondola -->
      <line x1="165" y1="93" x2="170" y2="110" stroke="#2A2018" stroke-width="1.2"/>
      <line x1="185" y1="94" x2="185" y2="110" stroke="#2A2018" stroke-width="1.2"/>
      <line x1="215" y1="94" x2="215" y2="110" stroke="#2A2018" stroke-width="1.2"/>
      <line x1="235" y1="93" x2="230" y2="110" stroke="#2A2018" stroke-width="1.2"/>

      <!-- Gondola (cabin) -->
      <path d="M 165,110 L 235,110 L 240,128 L 160,128 Z"
            fill="#F0E8D0" stroke="#2A2018" stroke-width="2" stroke-linejoin="round"/>

      <!-- Portholes -->
      <g fill="none" stroke="#2A2018" stroke-width="1.3">
        <circle cx="178" cy="119" r="3"/>
        <circle cx="200" cy="119" r="3"/>
        <circle cx="222" cy="119" r="3"/>
      </g>

      <!-- Exposed gear/cog on gondola stern -->
      <circle cx="246" cy="119" r="4" fill="#F5EFE0" stroke="#2A2018" stroke-width="0.9"/>
      <g stroke="#2A2018" stroke-width="0.8" fill="none" stroke-linecap="round">
        <line x1="241" y1="119" x2="251" y2="119"/>
        <line x1="246" y1="114" x2="246" y2="124"/>
        <line x1="242.5" y1="115.5" x2="249.5" y2="122.5"/>
        <line x1="242.5" y1="122.5" x2="249.5" y2="115.5"/>
      </g>

      <!-- Smokestack on top of envelope -->
      <rect x="208" y="46" width="7" height="10" fill="#F0E8D0" stroke="#2A2018" stroke-width="1"/>
      <rect x="207" y="44" width="9" height="3" fill="#2A2018"/>

      <!-- Smoke puffs rising and drifting back -->
      <g fill="#F5EFE0" stroke="#2A2018" stroke-width="0.9">
        <circle cx="211" cy="42" r="3">
          <animate attributeName="cx" values="211;180" dur="3s" repeatCount="indefinite"/>
          <animate attributeName="cy" values="42;28" dur="3s" repeatCount="indefinite"/>
          <animate attributeName="opacity" values="0.85;0" dur="3s" repeatCount="indefinite"/>
          <animate attributeName="r" values="3;8" dur="3s" repeatCount="indefinite"/>
        </circle>
        <circle cx="211" cy="42" r="3">
          <animate attributeName="cx" values="211;170" dur="3s" repeatCount="indefinite" begin="1s"/>
          <animate attributeName="cy" values="42;22" dur="3s" repeatCount="indefinite" begin="1s"/>
          <animate attributeName="opacity" values="0.85;0" dur="3s" repeatCount="indefinite" begin="1s"/>
          <animate attributeName="r" values="3;9" dur="3s" repeatCount="indefinite" begin="1s"/>
        </circle>
        <circle cx="211" cy="42" r="3">
          <animate attributeName="cx" values="211;175" dur="3s" repeatCount="indefinite" begin="2s"/>
          <animate attributeName="cy" values="42;20" dur="3s" repeatCount="indefinite" begin="2s"/>
          <animate attributeName="opacity" values="0.85;0" dur="3s" repeatCount="indefinite" begin="2s"/>
          <animate attributeName="r" values="3;10" dur="3s" repeatCount="indefinite" begin="2s"/>
        </circle>
      </g>

      <!-- Rear stabilizer fins (top + bottom) -->
      <path d="M 128,67 L 112,50 L 130,63 Z" fill="#F0E8D0" stroke="#2A2018" stroke-width="1.3" stroke-linejoin="round"/>
      <path d="M 128,83 L 112,100 L 130,87 Z" fill="#F0E8D0" stroke="#2A2018" stroke-width="1.3" stroke-linejoin="round"/>

      <!-- Propeller at rear — spins continuously -->
      <g transform="translate(120 75)">
        <g>
          <animateTransform attributeName="transform" type="rotate"
                            values="0;360" dur="0.35s" repeatCount="indefinite"/>
          <line x1="0" y1="-9" x2="0" y2="9" stroke="#2A2018" stroke-width="2"/>
          <line x1="-9" y1="0" x2="9" y2="0" stroke="#2A2018" stroke-width="2"/>
        </g>
        <circle r="2" fill="#2A2018"/>
      </g>

      <!-- Small skull-and-crossbones flag on top front -->
      <line x1="254" y1="55" x2="254" y2="38" stroke="#2A2018" stroke-width="1.5"/>
      <path d="M 254,38 L 272,41 L 269,48 L 272,55 L 254,52 Z" fill="#2A2018"/>
      <circle cx="260" cy="46" r="1.2" fill="#F5EFE0"/>
      <line x1="257" y1="49" x2="263" y2="49" stroke="#F5EFE0" stroke-width="0.6"/>
    </g>
  </g>

  <!-- Name title at top -->
  <text x="600" y="52" text-anchor="middle"
        font-family="Palatino, 'Palatino Linotype', Georgia, serif"
        font-size="42" font-weight="bold"
        fill="#2A2018" letter-spacing="6">PsycheBear</text>
</svg>
