<svg viewBox="0 0 1200 400" xmlns="http://www.w3.org/2000/svg" role="img" aria-label="Two stick figures sword fighting on a pirate ship">
  <!-- Parchment background -->
  <rect width="1200" height="400" fill="#F5EFE0"/>

  <!-- Subtle tea-stain texture -->
  <circle cx="150" cy="100" r="90" fill="#EADFB8" opacity="0.35"/>
  <circle cx="1050" cy="320" r="140" fill="#EADFB8" opacity="0.35"/>
  <circle cx="700" cy="60" r="60" fill="#EADFB8" opacity="0.25"/>

  <!-- Moon -->
  <circle cx="980" cy="90" r="32" fill="none" stroke="#2A2018" stroke-width="2"/>
  <circle cx="970" cy="85" r="4" fill="none" stroke="#2A2018" stroke-width="1.5"/>
  <circle cx="990" cy="100" r="3" fill="none" stroke="#2A2018" stroke-width="1.5"/>

  <!-- Clouds -->
  <g fill="none" stroke="#2A2018" stroke-width="2" stroke-linecap="round">
    <path d="M 100,80 Q 130,62 160,80 Q 180,70 200,85"/>
    <path d="M 280,130 Q 310,110 340,130"/>
    <path d="M 850,70 Q 880,50 910,70 Q 930,60 950,75"/>
  </g>

  <!-- Distant birds -->
  <g fill="none" stroke="#2A2018" stroke-width="2" stroke-linecap="round">
    <path d="M 420,95 Q 428,88 436,95 Q 444,88 452,95"/>
    <path d="M 510,75 Q 517,69 524,75 Q 531,69 538,75"/>
    <path d="M 760,110 Q 767,104 774,110 Q 781,104 788,110"/>
  </g>

  <!-- Ocean — two layered waves in muted blue-grey -->
  <g clip-path="inset(0)">
    <path fill="#B5C9D4" d="M -40,355 Q 40,345 120,355 Q 200,365 280,355 Q 360,345 440,355 Q 520,365 600,355 Q 680,345 760,355 Q 840,365 920,355 Q 1000,345 1080,355 Q 1160,365 1240,355 L 1240,400 L -40,400 Z">
      <animate attributeName="d" dur="5s" repeatCount="indefinite"
        values="M -40,355 Q 40,345 120,355 Q 200,365 280,355 Q 360,345 440,355 Q 520,365 600,355 Q 680,345 760,355 Q 840,365 920,355 Q 1000,345 1080,355 Q 1160,365 1240,355 L 1240,400 L -40,400 Z;
                M -40,355 Q 40,365 120,355 Q 200,345 280,355 Q 360,365 440,355 Q 520,345 600,355 Q 680,365 760,355 Q 840,345 920,355 Q 1000,365 1080,355 Q 1160,345 1240,355 L 1240,400 L -40,400 Z;
                M -40,355 Q 40,345 120,355 Q 200,365 280,355 Q 360,345 440,355 Q 520,365 600,355 Q 680,345 760,355 Q 840,365 920,355 Q 1000,345 1080,355 Q 1160,365 1240,355 L 1240,400 L -40,400 Z"/>
    </path>
    <path fill="#93AEBF" opacity="0.9" d="M -40,375 Q 60,370 160,375 Q 260,380 360,375 Q 460,370 560,375 Q 660,380 760,375 Q 860,370 960,375 Q 1060,380 1160,375 Q 1240,370 1240,375 L 1240,400 L -40,400 Z">
      <animate attributeName="d" dur="4s" repeatCount="indefinite"
        values="M -40,375 Q 60,370 160,375 Q 260,380 360,375 Q 460,370 560,375 Q 660,380 760,375 Q 860,370 960,375 Q 1060,380 1160,375 Q 1240,370 1240,375 L 1240,400 L -40,400 Z;
                M -40,375 Q 60,380 160,375 Q 260,370 360,375 Q 460,380 560,375 Q 660,370 760,375 Q 860,380 960,375 Q 1060,370 1160,375 Q 1240,380 1240,375 L 1240,400 L -40,400 Z;
                M -40,375 Q 60,370 160,375 Q 260,380 360,375 Q 460,370 560,375 Q 660,380 760,375 Q 860,370 960,375 Q 1060,380 1160,375 Q 1240,370 1240,375 L 1240,400 L -40,400 Z"/>
    </path>

    <!-- Floating ripple marks — scattered ink ~~ in the water -->
    <g stroke="#2A2018" stroke-width="0.9" fill="none" stroke-linecap="round" opacity="0.5">
      <path d="M 60,385 Q 70,382 80,385"/>
      <path d="M 260,390 Q 270,388 280,390"/>
      <path d="M 340,385 Q 350,383 360,385"/>
      <path d="M 540,388 Q 550,385 560,388"/>
      <path d="M 720,392 Q 730,389 740,392"/>
      <path d="M 860,385 Q 870,382 880,385"/>
      <path d="M 980,390 Q 990,388 1000,390"/>
      <path d="M 1120,388 Q 1130,385 1140,388"/>
    </g>
  </g>

  <!-- Shark swimming right-to-left, mirrored so head leads. Subtle bob offsets the airship's rhythm -->
  <g transform="translate(1200, 0) scale(-1, 1)">
    <g>
      <!-- Horizontal drift (right-to-left in screen space due to outer mirror) -->
      <animateTransform attributeName="transform" type="translate"
                        values="-260,0; 1280,0"
                        dur="34s" repeatCount="indefinite"/>
      <g>
        <!-- Vertical bob — different period from airship so they don't look synced -->
        <animateTransform attributeName="transform" type="translate"
                          values="0,0; 0,3; 0,-2; 0,2; 0,0"
                          dur="3.7s" repeatCount="indefinite"/>
        <!-- Body silhouette (outline only — water shows through) -->
        <path d="M 228,362 Q 222,355 208,352 Q 198,350 192,352 L 175,330 L 172,352 Q 160,355 148,358 L 141,349 L 135,358 Q 125,360 115,361 L 95,340 L 108,361 L 100,380 L 115,361 Q 140,374 175,373 Q 210,372 220,368 Q 225,365 228,362 Z"
              fill="none" stroke="#2A2018" stroke-width="2" stroke-linejoin="round"/>
        <!-- Pectoral fin hanging below the body -->
        <path d="M 195,370 L 178,382 L 210,370 Z"
              fill="none" stroke="#2A2018" stroke-width="1.8" stroke-linejoin="round"/>
        <!-- Gill slits -->
        <g stroke="#2A2018" stroke-width="1" fill="none" stroke-linecap="round">
          <line x1="213" y1="358" x2="211" y2="365"/>
          <line x1="209" y1="358" x2="207" y2="365"/>
          <line x1="205" y1="358" x2="203" y2="365"/>
          <line x1="201" y1="358" x2="199" y2="365"/>
          <line x1="197" y1="358" x2="195" y2="365"/>
        </g>
        <!-- Eye -->
        <circle cx="219" cy="359" r="1.5" fill="#2A2018"/>
        <!-- Toothy grin -->
        <path d="M 221,369 L 223,371 L 225,369 L 227,371 L 229,369"
              stroke="#2A2018" stroke-width="0.9" fill="none"/>
      </g>
    </g>
  </g>

  <!-- The whole ship group rocks gently -->
  <g>
    <animateTransform attributeName="transform" type="rotate"
                      values="-2 600 360; 2 600 360; -2 600 360"
                      dur="5s" repeatCount="indefinite"/>

    <!-- Flag — waves -->
    <line x1="600" y1="70" x2="600" y2="115" stroke="#2A2018" stroke-width="2.5"/>
    <path fill="#2A2018" d="M 600,75 L 648,82 L 642,95 L 648,108 L 600,100 Z">
      <animate attributeName="d" dur="1.8s" repeatCount="indefinite"
        values="M 600,75 L 648,82 L 642,95 L 648,108 L 600,100 Z;
                M 600,75 L 648,72 L 650,95 L 648,100 L 600,100 Z;
                M 600,75 L 648,82 L 642,95 L 648,108 L 600,100 Z"/>
    </path>
    <!-- Skull-and-crossbones — moves with the flag's wave (same 1.8s beat) -->
    <g>
      <animateTransform attributeName="transform" type="translate"
                        values="0,0; 1,-5; 0,0"
                        dur="1.8s" repeatCount="indefinite"/>
      <!-- Crossbones (behind the skull) -->
      <g stroke="#F5EFE0" stroke-width="1.6" stroke-linecap="round" fill="none">
        <line x1="612" y1="82" x2="632" y2="102"/>
        <line x1="612" y1="102" x2="632" y2="82"/>
      </g>
      <!-- Bone ends -->
      <g fill="#F5EFE0">
        <circle cx="611" cy="82" r="1.5"/>
        <circle cx="633" cy="102" r="1.5"/>
        <circle cx="611" cy="102" r="1.5"/>
        <circle cx="633" cy="82" r="1.5"/>
      </g>
      <!-- Skull -->
      <circle cx="622" cy="91" r="5" fill="#F5EFE0"/>
      <!-- Eye sockets -->
      <circle cx="619.5" cy="90" r="1.3" fill="#2A2018"/>
      <circle cx="624.5" cy="90" r="1.3" fill="#2A2018"/>
      <!-- Nasal triangle -->
      <path d="M 622,93 L 620.5,95 L 623.5,95 Z" fill="#2A2018"/>
      <!-- Jaw line with teeth gaps -->
      <rect x="617.5" y="95.5" width="9" height="2" fill="#F5EFE0"/>
      <g stroke="#2A2018" stroke-width="0.7" stroke-linecap="butt">
        <line x1="619.5" y1="95.5" x2="619.5" y2="97.5"/>
        <line x1="622" y1="95.5" x2="622" y2="97.5"/>
        <line x1="624.5" y1="95.5" x2="624.5" y2="97.5"/>
      </g>
    </g>

    <!-- Mast -->
    <line x1="600" y1="115" x2="600" y2="340" stroke="#2A2018" stroke-width="4"/>

    <!-- Crow's nest -->
    <path d="M 580,118 L 620,118 L 618,135 L 582,135 Z"
          fill="#F5EFE0" stroke="#2A2018" stroke-width="2"/>
    <line x1="584" y1="122" x2="616" y2="122" stroke="#2A2018" stroke-width="1.5"/>

    <!-- Yard arm (horizontal spar the sail hangs from) -->
    <line x1="510" y1="140" x2="690" y2="140" stroke="#2A2018" stroke-width="3.5" stroke-linecap="round"/>

    <!-- Main square-rigged sail — billowing from wind, one big panel -->
    <path d="M 525,142 Q 520,200 530,270 Q 600,290 670,270 Q 680,200 675,142 Z"
          fill="#F0E8D0" stroke="#2A2018" stroke-width="2.5" stroke-linejoin="round"/>

    <!-- Central seam -->
    <line x1="600" y1="142" x2="600" y2="283" stroke="#2A2018" stroke-width="1" stroke-dasharray="3 2"/>

    <!-- Horizontal reefing bands (curve with billow) -->
    <path d="M 528,195 Q 600,207 672,195" fill="none" stroke="#2A2018" stroke-width="1" stroke-dasharray="3 2"/>
    <path d="M 529,240 Q 600,253 671,240" fill="none" stroke="#2A2018" stroke-width="1" stroke-dasharray="3 2"/>

    <!-- Yard tie ropes from corners to mast -->
    <line x1="525" y1="142" x2="600" y2="138" stroke="#2A2018" stroke-width="1"/>
    <line x1="675" y1="142" x2="600" y2="138" stroke="#2A2018" stroke-width="1"/>

    <!-- Ropes from mast -->
    <line x1="600" y1="118" x2="460" y2="330" stroke="#2A2018" stroke-width="1.5"/>
    <line x1="600" y1="118" x2="740" y2="330" stroke="#2A2018" stroke-width="1.5"/>

    <!-- Deck line -->
    <line x1="435" y1="340" x2="765" y2="340" stroke="#2A2018" stroke-width="2.5"/>

    <!-- (Railing removed — the horizontal top bar at y=325 was cutting through
         the figures' legs at knee level, making them look like they were
         standing on a railing instead of the deck.) -->

    <!-- Hull -->
    <path d="M 430,340 L 770,340 L 738,388 L 462,388 Z"
          fill="#F5EFE0" stroke="#2A2018" stroke-width="3" stroke-linejoin="round"/>

    <!-- Hull planks (horizontal) -->
    <line x1="450" y1="352" x2="750" y2="352" stroke="#2A2018" stroke-width="1"/>
    <line x1="455" y1="364" x2="745" y2="364" stroke="#2A2018" stroke-width="1"/>
    <line x1="460" y1="376" x2="740" y2="376" stroke="#2A2018" stroke-width="1"/>

    <!-- Portholes -->
    <g fill="none" stroke="#2A2018" stroke-width="2">
      <circle cx="490" cy="362" r="6"/>
      <circle cx="545" cy="362" r="6"/>
      <circle cx="600" cy="362" r="6"/>
      <circle cx="655" cy="362" r="6"/>
      <circle cx="710" cy="362" r="6"/>
    </g>

    <!-- Barrel/crate on deck (left) -->
    <g stroke="#2A2018" stroke-width="1.8" fill="none">
      <rect x="450" y="310" width="22" height="22"/>
      <line x1="461" y1="310" x2="461" y2="332"/>
      <line x1="450" y1="321" x2="472" y2="321"/>
    </g>

    <!-- Barrel (right) -->
    <g stroke="#2A2018" stroke-width="1.8" fill="#F5EFE0">
      <ellipse cx="740" cy="314" rx="10" ry="4"/>
      <path d="M 730,314 L 730,332 Q 740,336 750,332 L 750,314" fill="#F5EFE0"/>
      <line x1="730" y1="322" x2="750" y2="322" stroke-width="1"/>
    </g>

    <!-- ═══════════════════════════════════════════ -->
    <!-- STICK FIGURE 1 — LEFT (bandana pirate)     -->
    <!-- ═══════════════════════════════════════════ -->
    <g stroke="#2A2018" stroke-width="2.3" stroke-linecap="round" fill="none">
      <!-- Head -->
      <circle cx="515" cy="268" r="9" fill="#F5EFE0"/>
      <!-- Bandana -->
      <path d="M 506,265 Q 515,259 524,265 L 524,269 L 506,269 Z" fill="#2A2018" stroke="none"/>
      <!-- Bandana knot + tails -->
      <line x1="524" y1="267" x2="531" y2="273" stroke-width="2"/>
      <line x1="526" y1="265" x2="533" y2="269" stroke-width="1.5"/>
      <!-- Two eyes -->
      <circle cx="512" cy="270" r="1.1" fill="#2A2018" stroke="none"/>
      <circle cx="518" cy="270" r="1.1" fill="#2A2018" stroke="none"/>
      <!-- Smile curve -->
      <path d="M 511,274 Q 515,276 519,274" stroke-width="1" fill="none"/>
      <!-- Earring -->
      <circle cx="506" cy="272" r="1" stroke="#2A2018" stroke-width="0.7" fill="none"/>
      <!-- Body -->
      <line x1="515" y1="277" x2="515" y2="315"/>
      <!-- Legs (reach deck at y=340) -->
      <line x1="515" y1="315" x2="504" y2="340"/>
      <line x1="515" y1="315" x2="526" y2="340"/>
      <!-- Back arm -->
      <line x1="515" y1="287" x2="503" y2="302"/>

      <!-- SWORD ARM + SABER — fist grips the hilt, blade curves and crosses center -->
      <g>
        <animateTransform attributeName="transform" type="rotate"
                          values="-10 515 287; 8 515 287; -10 515 287; -16 515 287; -10 515 287"
                          dur="1.1s" repeatCount="indefinite"/>
        <!-- Forearm -->
        <line x1="515" y1="287" x2="533" y2="282"/>
        <!-- Fist gripping the hilt -->
        <circle cx="535" cy="281" r="2.2" fill="#F5EFE0" stroke="#2A2018" stroke-width="1.3"/>
        <!-- Hilt grip (pommel -> guard) -->
        <line x1="538" y1="280" x2="544" y2="278" stroke-width="2.5"/>
        <!-- Crossguard -->
        <line x1="542" y1="275" x2="546" y2="284" stroke-width="3"/>
        <!-- Curved saber blade -->
        <path d="M 544,278 Q 576,262 608,250" stroke-width="2.3" fill="none"/>
        <!-- Tip flick -->
        <line x1="604" y1="252" x2="612" y2="247" stroke-width="2"/>
      </g>
    </g>

    <!-- ═══════════════════════════════════════════ -->
    <!-- STICK FIGURE 2 — RIGHT (pirate hat + patch) -->
    <!-- ═══════════════════════════════════════════ -->
    <g stroke="#2A2018" stroke-width="2.3" stroke-linecap="round" fill="none">
      <!-- Head -->
      <circle cx="685" cy="268" r="9" fill="#F5EFE0"/>
      <!-- Tricorn hat -->
      <path d="M 670,262 Q 685,248 700,262 L 698,266 L 672,266 Z" fill="#2A2018" stroke="none"/>
      <!-- Hat brim underline -->
      <path d="M 672,264 Q 685,257 698,264" stroke-width="1.2" fill="none"/>
      <!-- Tiny skull on hat -->
      <circle cx="685" cy="258" r="1.4" fill="#F5EFE0" stroke="none"/>
      <circle cx="683.7" cy="257.5" r="0.3" fill="#2A2018" stroke="none"/>
      <circle cx="686.3" cy="257.5" r="0.3" fill="#2A2018" stroke="none"/>
      <!-- Eye patch (proper oval shape) -->
      <ellipse cx="681" cy="269" rx="3" ry="2.5" fill="#2A2018" stroke="none"/>
      <!-- Patch strap across forehead -->
      <line x1="678" y1="267" x2="692" y2="265" stroke-width="1"/>
      <!-- Good eye -->
      <circle cx="689" cy="270" r="1.2" fill="#2A2018" stroke="none"/>
      <!-- Smile curve -->
      <path d="M 681,274 Q 685,276 689,274" stroke-width="1" fill="none"/>
      <!-- Earring -->
      <circle cx="694" cy="273" r="1" stroke="#2A2018" stroke-width="0.7" fill="none"/>
      <!-- Body -->
      <line x1="685" y1="277" x2="685" y2="315"/>
      <!-- Legs (reach deck at y=340) -->
      <line x1="685" y1="315" x2="674" y2="340"/>
      <line x1="685" y1="315" x2="696" y2="340"/>
      <!-- Back arm -->
      <line x1="685" y1="287" x2="697" y2="302"/>

      <!-- SWORD ARM + SABER — mirrored, fist grips the hilt -->
      <g>
        <animateTransform attributeName="transform" type="rotate"
                          values="10 685 287; -8 685 287; 10 685 287; 16 685 287; 10 685 287"
                          dur="1.1s" repeatCount="indefinite"/>
        <!-- Forearm -->
        <line x1="685" y1="287" x2="667" y2="282"/>
        <!-- Fist gripping the hilt -->
        <circle cx="665" cy="281" r="2.2" fill="#F5EFE0" stroke="#2A2018" stroke-width="1.3"/>
        <!-- Hilt grip -->
        <line x1="662" y1="280" x2="656" y2="278" stroke-width="2.5"/>
        <!-- Crossguard -->
        <line x1="658" y1="275" x2="654" y2="284" stroke-width="3"/>
        <!-- Curved saber blade (mirrored) -->
        <path d="M 656,278 Q 624,262 592,250" stroke-width="2.3" fill="none"/>
        <!-- Tip flick -->
        <line x1="596" y1="252" x2="588" y2="247" stroke-width="2"/>
      </g>
    </g>

    <!-- CLASH SPARKS at the saber crossing -->
    <g transform="translate(600 253)" stroke="#2A2018" stroke-width="2" stroke-linecap="round">
      <g>
        <animate attributeName="opacity" values="0;0;0;1;0;0" dur="1.1s" repeatCount="indefinite"/>
        <line x1="0" y1="0" x2="-8" y2="-8"/>
        <line x1="0" y1="0" x2="8" y2="-8"/>
        <line x1="0" y1="0" x2="-11" y2="0"/>
        <line x1="0" y1="0" x2="11" y2="0"/>
        <line x1="0" y1="0" x2="0" y2="-11"/>
        <line x1="0" y1="0" x2="-6" y2="6"/>
        <line x1="0" y1="0" x2="6" y2="6"/>
      </g>
    </g>
  </g>

  <!-- ═══════════════════════════════════════════════════════ -->
  <!-- STEAMPUNK AIRSHIP — drifts across the upper sky         -->
  <!-- ═══════════════════════════════════════════════════════ -->
  <g>
    <!-- Horizontal drift: 50s from off-screen left to off-screen right -->
    <animateTransform attributeName="transform" type="translate"
                      values="-350,0; 1500,0"
                      dur="50s" repeatCount="indefinite"/>
    <g>
      <!-- Gentle vertical bob -->
      <animateTransform attributeName="transform" type="translate"
                        values="0,0; 0,-4; 0,2; 0,-2; 0,0"
                        dur="4.5s" repeatCount="indefinite"/>

      <!-- Trailing ribbon — shorter, sits slightly lower, waves in the wind -->
      <path d="M 162,108 Q 110,104 60,108 Q 10,112 -38,108 L -38,130 Q 10,134 60,130 Q 110,126 162,130 Z"
            fill="#F0E8D0" stroke="#2A2018" stroke-width="1.5" stroke-linejoin="round">
        <animate attributeName="d" dur="2s" repeatCount="indefinite"
          values="M 162,108 Q 110,104 60,108 Q 10,112 -38,108 L -38,130 Q 10,134 60,130 Q 110,126 162,130 Z;
                  M 162,108 Q 110,112 60,108 Q 10,104 -38,108 L -38,130 Q 10,126 60,130 Q 110,134 162,130 Z;
                  M 162,108 Q 110,104 60,108 Q 10,112 -38,108 L -38,130 Q 10,134 60,130 Q 110,126 162,130 Z"/>
      </path>
      <text x="62" y="123" font-family="'Courier New', Courier, monospace"
            font-size="10" font-weight="900"
            fill="#2A2018" stroke="#2A2018" stroke-width="0.4"
            text-anchor="middle">NO TESTS, JUST PUSH &amp; COMMIT</text>

      <!-- Envelope (gas balloon) centered at (200, 75) -->
      <ellipse cx="200" cy="75" rx="75" ry="20"
               fill="#F5EFE0" stroke="#2A2018" stroke-width="2.5"/>

      <!-- Envelope rivets along the top seam -->
      <g fill="#2A2018">
        <circle cx="140" cy="62" r="1"/>
        <circle cx="160" cy="58" r="1"/>
        <circle cx="180" cy="56" r="1"/>
        <circle cx="200" cy="55" r="1"/>
        <circle cx="220" cy="56" r="1"/>
        <circle cx="240" cy="58" r="1"/>
        <circle cx="260" cy="62" r="1"/>
      </g>
      <!-- Hull seam across envelope -->
      <line x1="130" y1="75" x2="270" y2="75"
            stroke="#2A2018" stroke-width="0.8" stroke-dasharray="3 2"/>

      <!-- Rigging from envelope down to gondola -->
      <line x1="165" y1="93" x2="170" y2="110" stroke="#2A2018" stroke-width="1.2"/>
      <line x1="185" y1="94" x2="185" y2="110" stroke="#2A2018" stroke-width="1.2"/>
      <line x1="215" y1="94" x2="215" y2="110" stroke="#2A2018" stroke-width="1.2"/>
      <line x1="235" y1="93" x2="230" y2="110" stroke="#2A2018" stroke-width="1.2"/>

      <!-- Gondola (cabin) -->
      <path d="M 165,110 L 235,110 L 240,128 L 160,128 Z"
            fill="#F0E8D0" stroke="#2A2018" stroke-width="2" stroke-linejoin="round"/>

      <!-- Portholes -->
      <g fill="none" stroke="#2A2018" stroke-width="1.3">
        <circle cx="178" cy="119" r="3"/>
        <circle cx="200" cy="119" r="3"/>
        <circle cx="222" cy="119" r="3"/>
      </g>

      <!-- Exposed gear/cog on gondola stern -->
      <circle cx="246" cy="119" r="4" fill="#F5EFE0" stroke="#2A2018" stroke-width="0.9"/>
      <g stroke="#2A2018" stroke-width="0.8" fill="none" stroke-linecap="round">
        <line x1="241" y1="119" x2="251" y2="119"/>
        <line x1="246" y1="114" x2="246" y2="124"/>
        <line x1="242.5" y1="115.5" x2="249.5" y2="122.5"/>
        <line x1="242.5" y1="122.5" x2="249.5" y2="115.5"/>
      </g>

      <!-- Smokestack on top of envelope -->
      <rect x="208" y="46" width="7" height="10" fill="#F0E8D0" stroke="#2A2018" stroke-width="1"/>
      <rect x="207" y="44" width="9" height="3" fill="#2A2018"/>

      <!-- Smoke puffs rising and drifting back -->
      <g fill="#F5EFE0" stroke="#2A2018" stroke-width="0.9">
        <circle cx="211" cy="42" r="3">
          <animate attributeName="cx" values="211;180" dur="3s" repeatCount="indefinite"/>
          <animate attributeName="cy" values="42;28" dur="3s" repeatCount="indefinite"/>
          <animate attributeName="opacity" values="0.85;0" dur="3s" repeatCount="indefinite"/>
          <animate attributeName="r" values="3;8" dur="3s" repeatCount="indefinite"/>
        </circle>
        <circle cx="211" cy="42" r="3">
          <animate attributeName="cx" values="211;170" dur="3s" repeatCount="indefinite" begin="1s"/>
          <animate attributeName="cy" values="42;22" dur="3s" repeatCount="indefinite" begin="1s"/>
          <animate attributeName="opacity" values="0.85;0" dur="3s" repeatCount="indefinite" begin="1s"/>
          <animate attributeName="r" values="3;9" dur="3s" repeatCount="indefinite" begin="1s"/>
        </circle>
        <circle cx="211" cy="42" r="3">
          <animate attributeName="cx" values="211;175" dur="3s" repeatCount="indefinite" begin="2s"/>
          <animate attributeName="cy" values="42;20" dur="3s" repeatCount="indefinite" begin="2s"/>
          <animate attributeName="opacity" values="0.85;0" dur="3s" repeatCount="indefinite" begin="2s"/>
          <animate attributeName="r" values="3;10" dur="3s" repeatCount="indefinite" begin="2s"/>
        </circle>
      </g>

      <!-- Rear stabilizer fins (top + bottom) -->
      <path d="M 128,67 L 112,50 L 130,63 Z" fill="#F0E8D0" stroke="#2A2018" stroke-width="1.3" stroke-linejoin="round"/>
      <path d="M 128,83 L 112,100 L 130,87 Z" fill="#F0E8D0" stroke="#2A2018" stroke-width="1.3" stroke-linejoin="round"/>

      <!-- Propeller at rear — spins continuously -->
      <g transform="translate(120 75)">
        <g>
          <animateTransform attributeName="transform" type="rotate"
                            values="0;360" dur="0.35s" repeatCount="indefinite"/>
          <line x1="0" y1="-9" x2="0" y2="9" stroke="#2A2018" stroke-width="2"/>
          <line x1="-9" y1="0" x2="9" y2="0" stroke="#2A2018" stroke-width="2"/>
        </g>
        <circle r="2" fill="#2A2018"/>
      </g>

      <!-- Small skull-and-crossbones flag on top front -->
      <line x1="254" y1="55" x2="254" y2="38" stroke="#2A2018" stroke-width="1.5"/>
      <path d="M 254,38 L 272,41 L 269,48 L 272,55 L 254,52 Z" fill="#2A2018"/>
      <circle cx="260" cy="46" r="1.2" fill="#F5EFE0"/>
      <line x1="257" y1="49" x2="263" y2="49" stroke="#F5EFE0" stroke-width="0.6"/>
    </g>
  </g>

  <!-- Name title at top -->
  <text x="600" y="52" text-anchor="middle"
        font-family="Palatino, 'Palatino Linotype', Georgia, serif"
        font-size="42" font-weight="bold"
        fill="#2A2018" letter-spacing="6">PsycheBear</text>
</svg>
