<svg viewBox="0 0 1200 400" xmlns="http://www.w3.org/2000/svg" role="img" aria-label="Animated parchment scene: two pirates duel on a galleon under a drifting airship trailing a NO TESTS JUST PUSH AND COMMIT banner, with floating rock islands, clouds, a flock of birds, a moon and a shark below.">
  <defs>
    <!-- Reusable M-shaped bird with wing-flap; placed and re-used across the flock -->
    <g id="bird" fill="none" stroke="#2A2018" stroke-width="1.5" stroke-linecap="round">
      <path d="M 0,0 Q 3,-3 6,0 Q 9,-3 12,0">
        <animate attributeName="d" dur="0.5s" repeatCount="indefinite"
          values="M 0,0 Q 3,-3 6,0 Q 9,-3 12,0;
                  M 0,0 Q 3,3 6,0 Q 9,3 12,0;
                  M 0,0 Q 3,-3 6,0 Q 9,-3 12,0"/>
      </path>
    </g>
  </defs>

  <!-- Parchment background -->
  <rect width="1200" height="400" fill="#F5EFE0"/>

  <!-- Subtle tea-stain texture -->
  <circle cx="150" cy="100" r="90" fill="#EADFB8" opacity="0.35"/>
  <circle cx="1050" cy="320" r="140" fill="#EADFB8" opacity="0.35"/>
  <circle cx="700" cy="60" r="60" fill="#EADFB8" opacity="0.25"/>

  <!-- Moon -->
  <circle cx="980" cy="90" r="32" fill="none" stroke="#2A2018" stroke-width="2"/>
  <circle cx="970" cy="85" r="4" fill="none" stroke="#2A2018" stroke-width="1.5"/>
  <circle cx="990" cy="100" r="3" fill="none" stroke="#2A2018" stroke-width="1.5"/>

  <!-- Floating rock islands — Studio Ghibli / steampunk vibe, hovering in midair with a gentle bob -->
  <!-- Island 1: upper-left, medium -->
  <g>
    <animateTransform attributeName="transform" type="translate"
                      values="0,0; 0,-3; 0,2; 0,0"
                      dur="7s" repeatCount="indefinite"/>
    <!-- Rock chunk, wider at top, tapering downward -->
    <path d="M 80,180 Q 100,172 130,176 Q 165,172 185,182 Q 192,200 172,218 Q 150,232 128,228 Q 100,222 85,200 Q 75,188 80,180 Z"
          fill="#BDA07A" stroke="#2A2018" stroke-width="2" stroke-linejoin="round"/>
    <path d="M 115,198 L 122,215" stroke="#2A2018" stroke-width="0.8" fill="none" stroke-linecap="round"/>
    <path d="M 155,194 Q 160,208 152,220" stroke="#2A2018" stroke-width="0.8" fill="none" stroke-linecap="round"/>
    <!-- Grass cap -->
    <path d="M 80,180 Q 130,170 185,182 L 183,189 Q 130,178 82,188 Z"
          fill="#A8BC82" stroke="#2A2018" stroke-width="1.4" stroke-linejoin="round"/>
    <!-- Grass tufts -->
    <g stroke="#2A2018" stroke-width="0.9" fill="none" stroke-linecap="round">
      <path d="M 98,179 L 100,175 L 102,179"/>
      <path d="M 163,177 L 165,173 L 167,177"/>
    </g>
    <!-- Trees -->
    <line x1="140" y1="175" x2="140" y2="160" stroke="#2A2018" stroke-width="1.5" stroke-linecap="round"/>
    <circle cx="140" cy="155" r="6" fill="#A8BC82" stroke="#2A2018" stroke-width="1.4"/>
    <line x1="120" y1="177" x2="120" y2="168" stroke="#2A2018" stroke-width="1.3" stroke-linecap="round"/>
    <circle cx="120" cy="164" r="3.5" fill="#A8BC82" stroke="#2A2018" stroke-width="1.3"/>
  </g>

  <!-- Island 2: upper-right, medium — slightly slower bob -->
  <g>
    <animateTransform attributeName="transform" type="translate"
                      values="0,0; 0,-2; 0,3; 0,0"
                      dur="8s" repeatCount="indefinite" begin="-2s"/>
    <path d="M 1020,165 Q 1045,158 1075,163 Q 1110,165 1130,173 Q 1138,192 1120,212 Q 1095,228 1070,223 Q 1040,218 1025,193 Q 1012,178 1020,165 Z"
          fill="#BDA07A" stroke="#2A2018" stroke-width="2" stroke-linejoin="round"/>
    <path d="M 1060,188 L 1066,205" stroke="#2A2018" stroke-width="0.8" fill="none" stroke-linecap="round"/>
    <path d="M 1095,182 Q 1097,198 1090,210" stroke="#2A2018" stroke-width="0.8" fill="none" stroke-linecap="round"/>
    <path d="M 1020,165 Q 1075,155 1130,173 L 1128,180 Q 1075,165 1022,173 Z"
          fill="#A8BC82" stroke="#2A2018" stroke-width="1.4" stroke-linejoin="round"/>
    <g stroke="#2A2018" stroke-width="0.9" fill="none" stroke-linecap="round">
      <path d="M 1045,163 L 1047,159 L 1049,163"/>
      <path d="M 1108,168 L 1110,164 L 1112,168"/>
    </g>
    <line x1="1075" y1="161" x2="1075" y2="146" stroke="#2A2018" stroke-width="1.5" stroke-linecap="round"/>
    <circle cx="1075" cy="141" r="6.5" fill="#A8BC82" stroke="#2A2018" stroke-width="1.4"/>
  </g>

  <!-- Island 3: small, mid-left, faster shorter bob -->
  <g>
    <animateTransform attributeName="transform" type="translate"
                      values="0,0; 0,-2; 0,1; 0,0"
                      dur="5s" repeatCount="indefinite" begin="-1s"/>
    <path d="M 290,258 Q 312,252 335,257 Q 345,268 333,282 Q 318,292 305,288 Q 288,280 290,258 Z"
          fill="#BDA07A" stroke="#2A2018" stroke-width="1.6" stroke-linejoin="round"/>
    <path d="M 290,258 Q 312,250 335,257 L 334,262 Q 312,256 292,263 Z"
          fill="#A8BC82" stroke="#2A2018" stroke-width="1.3" stroke-linejoin="round"/>
    <path d="M 302,255 L 304,251 L 306,255" stroke="#2A2018" stroke-width="0.8" fill="none" stroke-linecap="round"/>
    <line x1="315" y1="255" x2="315" y2="245" stroke="#2A2018" stroke-width="1.2" stroke-linecap="round"/>
    <circle cx="315" cy="242" r="3.5" fill="#A8BC82" stroke="#2A2018" stroke-width="1.2"/>
  </g>

  <!-- Clouds — parallax drift across the sky -->
  <!-- Background clouds: smaller, fainter, slower drift (90s) -->
  <g fill="none" stroke="#2A2018" stroke-width="1.4" stroke-linecap="round" opacity="0.55">
    <animateTransform attributeName="transform" type="translate"
                      values="-350,0; 1550,0"
                      dur="90s" repeatCount="indefinite" begin="-50s"/>
    <path d="M 280,130 Q 310,110 340,130"/>
    <path d="M 370,175 Q 385,167 400,175"/>
    <path d="M 1050,140 Q 1068,130 1086,140"/>
    <path d="M 900,30 Q 914,23 928,30"/>
  </g>
  <!-- Foreground clouds: larger, full opacity, faster drift (60s) -->
  <g fill="none" stroke="#2A2018" stroke-width="2" stroke-linecap="round">
    <animateTransform attributeName="transform" type="translate"
                      values="-350,0; 1550,0"
                      dur="60s" repeatCount="indefinite" begin="-30s"/>
    <path d="M 100,80 Q 130,62 160,80 Q 180,70 200,85"/>
    <path d="M 850,70 Q 880,50 910,70 Q 930,60 950,75"/>
  </g>

  <!-- Distant birds -->
  <g fill="none" stroke="#2A2018" stroke-width="2" stroke-linecap="round">
    <path d="M 420,95 Q 428,88 436,95 Q 444,88 452,95"/>
    <path d="M 510,75 Q 517,69 524,75 Q 531,69 538,75"/>
    <path d="M 760,110 Q 767,104 774,110 Q 781,104 788,110"/>
  </g>

  <!-- Animated flock — six M-shaped birds flying right across the upper sky in a loose V, ~30s per pass. Wing-flap lives on the #bird symbol in <defs>. -->
  <g>
    <animateTransform attributeName="transform" type="translate"
                      values="-80,0; 1320,0"
                      dur="30s" repeatCount="indefinite" begin="-12s"/>
    <use href="#bird" x="0" y="120"/>
    <use href="#bird" x="-14" y="124"/>
    <use href="#bird" x="-14" y="116"/>
    <use href="#bird" x="-28" y="127"/>
    <use href="#bird" x="-28" y="113"/>
    <use href="#bird" x="-42" y="120"/>
  </g>

  <!-- The whole ship group rocks gently and rides the wave crests -->
  <g>
    <animateTransform attributeName="transform" type="rotate"
                      values="-2 600 360; 2 600 360; -2 600 360"
                      dur="5s" repeatCount="indefinite"/>
    <!-- Vertical bob synced to upper wave period (5s) — additive so it layers on the rotation -->
    <animateTransform attributeName="transform" type="translate"
                      values="0,0; 0,-2.5; 0,1; 0,0"
                      dur="5s" repeatCount="indefinite"
                      additive="sum"/>

    <!-- ═══════════════════════════════════════════════════════════ -->
    <!-- SHIP RIG — vertical mast, three yards, three stacked sails  -->
    <!-- ═══════════════════════════════════════════════════════════ -->

    <!-- 1. CLEAR VERTICAL MAINMAST — primary visual anchor (mast top well below the title) -->
    <line x1="600" y1="78" x2="600" y2="340" stroke="#2A2018" stroke-width="4"/>

    <!-- 6. CLEAN RIGGING (thin, 50% opacity, behind the sails) -->
    <g stroke="#2A2018" stroke-width="1" opacity="0.5" stroke-linecap="round">
      <!-- Forestay (mast top down to bow) -->
      <line x1="600" y1="80" x2="445" y2="326"/>
      <!-- Backstay (mast top down to stern) -->
      <line x1="600" y1="80" x2="795" y2="322"/>
      <!-- Shrouds from yard ends to the deck rail (fan out to match the widening yards) -->
      <line x1="570" y1="130" x2="505" y2="340"/>
      <line x1="630" y1="130" x2="695" y2="340"/>
      <line x1="550" y1="180" x2="490" y2="340"/>
      <line x1="650" y1="180" x2="710" y2="340"/>
      <line x1="510" y1="245" x2="470" y2="340"/>
      <line x1="690" y1="245" x2="730" y2="340"/>
    </g>

    <!-- 3c. LOWER SAIL — main course, dominant sail on the rig (widest + tallest) -->
    <line x1="510" y1="245" x2="690" y2="245" stroke="#2A2018" stroke-width="3.2" stroke-linecap="round"/>
    <path d="M 510,247 Q 498,282 512,315 Q 600,325 688,315 Q 702,282 690,247 Z"
          fill="#F0E8D0" stroke="#2A2018" stroke-width="2" stroke-linejoin="round">
      <animate attributeName="d" dur="1.8s" repeatCount="indefinite"
        values="M 510,247 Q 498,282 512,315 Q 600,325 688,315 Q 702,282 690,247 Z;
                M 510,247 Q 502,284 514,316 Q 603,329 688,315 Q 700,280 690,247 Z;
                M 510,247 Q 498,282 512,315 Q 600,325 688,315 Q 702,282 690,247 Z"/>
    </path>
    <!-- Two reefing bands across the main course -->
    <path d="M 512,272 Q 600,279 688,272" fill="none" stroke="#2A2018" stroke-width="1" stroke-dasharray="3 2"/>
    <path d="M 512,298 Q 600,306 688,298" fill="none" stroke="#2A2018" stroke-width="1" stroke-dasharray="3 2"/>

    <!-- 3b. MIDDLE SAIL — topsail, clearly smaller than the main course -->
    <line x1="550" y1="180" x2="650" y2="180" stroke="#2A2018" stroke-width="2.6" stroke-linecap="round"/>
    <path d="M 550,182 Q 542,205 553,228 Q 600,236 647,228 Q 658,205 650,182 Z"
          fill="#F0E8D0" stroke="#2A2018" stroke-width="1.8" stroke-linejoin="round">
      <animate attributeName="d" dur="2.1s" repeatCount="indefinite"
        values="M 550,182 Q 542,205 553,228 Q 600,236 647,228 Q 658,205 650,182 Z;
                M 550,182 Q 545,207 555,229 Q 603,240 647,228 Q 655,203 650,182 Z;
                M 550,182 Q 542,205 553,228 Q 600,236 647,228 Q 658,205 650,182 Z"/>
    </path>
    <!-- Reefing band -->
    <path d="M 552,205 Q 600,211 648,205" fill="none" stroke="#2A2018" stroke-width="1" stroke-dasharray="3 2"/>

    <!-- 3a. UPPER SAIL — topgallant, the smallest of the three -->
    <line x1="570" y1="130" x2="630" y2="130" stroke="#2A2018" stroke-width="2.2" stroke-linecap="round"/>
    <path d="M 570,132 Q 564,148 573,163 Q 600,168 627,163 Q 636,148 630,132 Z"
          fill="#F0E8D0" stroke="#2A2018" stroke-width="1.6" stroke-linejoin="round">
      <animate attributeName="d" dur="1.9s" repeatCount="indefinite"
        values="M 570,132 Q 564,148 573,163 Q 600,168 627,163 Q 636,148 630,132 Z;
                M 570,132 Q 567,150 575,164 Q 603,172 627,163 Q 633,146 630,132 Z;
                M 570,132 Q 564,148 573,163 Q 600,168 627,163 Q 636,148 630,132 Z"/>
    </path>

    <!-- 4. CROW'S NEST — sits between the flag and the topgallant yard (hull brown to match the ship) -->
    <path d="M 585,115 L 615,115 L 613,128 L 587,128 Z"
          fill="#9C6B3F" stroke="#2A2018" stroke-width="1.5" stroke-linejoin="round"/>
    <line x1="588" y1="120" x2="612" y2="120" stroke="#2A2018" stroke-width="1"/>

    <!-- 5. MAIN FLAG — flies from the new (lower) mast top, safely below the title -->
    <path fill="#2A2018" d="M 600,80 L 660,86 L 653,98 L 660,110 L 600,112 Z">
      <animate attributeName="d" dur="1.8s" repeatCount="indefinite"
        values="M 600,80 L 660,86 L 653,98 L 660,110 L 600,112 Z;
                M 600,80 L 660,76 L 662,98 L 660,106 L 600,112 Z;
                M 600,80 L 660,86 L 653,98 L 660,110 L 600,112 Z"/>
    </path>
    <!-- Skull-and-crossbones on the flag — waves with the flag on the same 1.8s beat -->
    <g>
      <animateTransform attributeName="transform" type="translate"
                        values="0,0; 1,-5; 0,0"
                        dur="1.8s" repeatCount="indefinite"/>
      <!-- Crossbones -->
      <g stroke="#F5EFE0" stroke-width="1.8" stroke-linecap="round" fill="none">
        <line x1="614" y1="86" x2="644" y2="110"/>
        <line x1="614" y1="110" x2="644" y2="86"/>
      </g>
      <g fill="#F5EFE0">
        <circle cx="613" cy="86" r="1.7"/>
        <circle cx="646" cy="110" r="1.7"/>
        <circle cx="613" cy="110" r="1.7"/>
        <circle cx="646" cy="86" r="1.7"/>
      </g>
      <!-- Skull -->
      <circle cx="629" cy="98" r="6" fill="#F5EFE0"/>
      <circle cx="626" cy="96" r="1.5" fill="#2A2018"/>
      <circle cx="632" cy="96" r="1.5" fill="#2A2018"/>
      <path d="M 629,100 L 627,103 L 631,103 Z" fill="#2A2018"/>
      <rect x="623" y="102" width="12" height="2.5" fill="#F5EFE0"/>
      <g stroke="#2A2018" stroke-width="0.8">
        <line x1="626" y1="102" x2="626" y2="104.5"/>
        <line x1="629" y1="102" x2="629" y2="104.5"/>
        <line x1="632" y1="102" x2="632" y2="104.5"/>
      </g>
    </g>

    <!-- Main deck — visible plank strip between the fore- and stern-castles -->
    <rect x="462" y="338" width="288" height="4" fill="#A0754E" stroke="#2A2018" stroke-width="0.9"/>
    <!-- Plank division ticks -->
    <g stroke="#2A2018" stroke-width="0.6">
      <line x1="495" y1="338" x2="495" y2="342"/>
      <line x1="525" y1="338" x2="525" y2="342"/>
      <line x1="555" y1="338" x2="555" y2="342"/>
      <line x1="585" y1="338" x2="585" y2="342"/>
      <line x1="615" y1="338" x2="615" y2="342"/>
      <line x1="645" y1="338" x2="645" y2="342"/>
      <line x1="675" y1="338" x2="675" y2="342"/>
      <line x1="705" y1="338" x2="705" y2="342"/>
      <line x1="735" y1="338" x2="735" y2="342"/>
    </g>
    <!-- Small deck strips on fore- and stern-castles for consistency -->
    <rect x="447" y="324" width="16" height="3" fill="#A0754E" stroke="#2A2018" stroke-width="0.8"/>
    <rect x="752" y="320" width="41" height="3" fill="#A0754E" stroke="#2A2018" stroke-width="0.8"/>

    <!-- Hull — galleon profile with raised fore- and stern-castles + curved bottom (wood brown) -->
    <path d="M 420,340 L 445,340 L 445,326 L 465,326 L 465,340 L 750,340 L 750,322 L 795,322 L 795,340 L 808,340 Q 788,400 600,405 Q 432,400 420,340 Z"
          fill="#9C6B3F" stroke="#2A2018" stroke-width="3" stroke-linejoin="round"/>

    <!-- Hull planks — follow the curved hull bottom without spilling past the edges -->
    <path d="M 445,355 Q 600,360 788,355" fill="none" stroke="#2A2018" stroke-width="1"/>
    <path d="M 470,372 Q 600,380 770,372" fill="none" stroke="#2A2018" stroke-width="1"/>
    <path d="M 510,388 Q 600,396 720,388" fill="none" stroke="#2A2018" stroke-width="1"/>

    <!-- Gun ports along the hull — filled dark so they read as cannon openings -->
    <g fill="#2A2018" stroke="#2A2018" stroke-width="2">
      <circle cx="480" cy="362" r="6"/>
      <circle cx="535" cy="362" r="6"/>
      <circle cx="595" cy="362" r="6"/>
      <circle cx="655" cy="362" r="6"/>
      <circle cx="715" cy="362" r="6"/>
      <circle cx="770" cy="362" r="5"/>
    </g>

    <!-- Mizzenmast — slants backward (toward the stern) as if the wind is pushing it -->
    <line x1="775" y1="322" x2="793" y2="285" stroke="#2A2018" stroke-width="2.5" stroke-linecap="round"/>

    <!-- Stern pennant at the top of the slanted pole — hoist edge runs along the pole so the flag is mounted flush on it -->
    <path fill="#2A2018" d="M 793,285 L 812,289 L 808,294 L 812,300 L 787,297 Z">
      <animate attributeName="d" dur="1.5s" repeatCount="indefinite"
        values="M 793,285 L 812,289 L 808,294 L 812,300 L 787,297 Z;
                M 793,285 L 812,284 L 814,294 L 812,296 L 787,297 Z;
                M 793,285 L 812,289 L 808,294 L 812,300 L 787,297 Z"/>
    </path>
    <!-- Tiny skull + crossbones on pennant — waves with the flag on the same 1.5s beat -->
    <g>
      <animateTransform attributeName="transform" type="translate"
                        values="0,0; 0.5,-2; 0,0"
                        dur="1.5s" repeatCount="indefinite"/>
      <g stroke="#F5EFE0" stroke-width="0.7" stroke-linecap="round" fill="none">
        <line x1="798" y1="289" x2="806" y2="296"/>
        <line x1="798" y1="296" x2="806" y2="289"/>
      </g>
      <circle cx="802" cy="292.5" r="2" fill="#F5EFE0"/>
      <circle cx="801" cy="292" r="0.4" fill="#2A2018"/>
      <circle cx="803" cy="292" r="0.4" fill="#2A2018"/>
    </g>

    <!-- Ship's wheel on the stern castle — tilted ~70° from face-on, scaled up so it reads at the stick figure's scale -->
    <g>
      <!-- Mounting post -->
      <line x1="763" y1="322" x2="763" y2="317" stroke="#2A2018" stroke-width="1.6" stroke-linecap="round"/>
      <!-- Rim (tilted wheel — narrower horizontally than tall) -->
      <ellipse cx="763" cy="306" rx="7" ry="11" fill="#F0E8D0" stroke="#2A2018" stroke-width="1.4"/>
      <!-- 8 handle-grip spokes radiating from the hub and extending past the rim -->
      <g stroke="#2A2018" stroke-width="1.1" stroke-linecap="round">
        <line x1="763" y1="292" x2="763" y2="320"/>
        <line x1="753" y1="306" x2="773" y2="306"/>
        <line x1="755" y1="298" x2="771" y2="314"/>
        <line x1="755" y1="314" x2="771" y2="298"/>
      </g>
      <!-- Hub -->
      <circle cx="763" cy="306" r="1.6" fill="#2A2018"/>
    </g>

    <!-- Crate on deck (front/bow side) — bottom at y=338 so it sits on the deck plank strip -->
    <g stroke="#2A2018" stroke-width="1.8" fill="#8B5A2B">
      <rect x="472" y="316" width="22" height="22"/>
      <line x1="483" y1="316" x2="483" y2="338" stroke-width="1"/>
      <line x1="472" y1="327" x2="494" y2="327" stroke-width="1"/>
    </g>

    <!-- Barrel on deck (stern side) — sides reach the deck plank so it doesn't float -->
    <g stroke="#2A2018" stroke-width="1.5" fill="#8B5A2B">
      <!-- Body with slightly bulging staves, bottom planted firmly on the deck -->
      <path d="M 730,313 Q 728,325 730,338 Q 740,342 750,338 Q 752,325 750,313 Q 740,317 730,313 Z"/>
      <!-- Top rim -->
      <ellipse cx="740" cy="313" rx="10" ry="3"/>
      <!-- Top opening (inner ellipse) -->
      <ellipse cx="740" cy="313" rx="7.5" ry="2" fill="none" stroke-width="0.8"/>
      <!-- Two horizontal bands -->
      <path d="M 730,322 Q 740,325 750,322" fill="none" stroke-width="1"/>
      <path d="M 730,333 Q 740,336 750,333" fill="none" stroke-width="1"/>
    </g>

    <!-- Second crate on deck (bow side, stacked-ish) -->
    <g stroke="#2A2018" stroke-width="1.6" fill="#6B4423">
      <rect x="496" y="324" width="14" height="14"/>
      <line x1="503" y1="324" x2="503" y2="338" stroke-width="0.8"/>
      <line x1="496" y1="331" x2="510" y2="331" stroke-width="0.8"/>
    </g>

    <!-- Coiled rope on deck (stern side) — top-down view of concentric coils -->
    <g stroke="#2A2018" stroke-width="1.1" stroke-linecap="round">
      <ellipse cx="715" cy="336" rx="7" ry="2.4" fill="#F0E8D0"/>
      <ellipse cx="715" cy="336" rx="4.3" ry="1.4" fill="#F0E8D0"/>
      <ellipse cx="715" cy="336" rx="1.8" ry="0.6" fill="#F0E8D0"/>
    </g>

    <!-- ═══════════════════════════════════════════ -->
    <!-- STICK FIGURE 1 — LEFT (bandana pirate)     -->
    <!-- ═══════════════════════════════════════════ -->
    <g stroke="#2A2018" stroke-width="2.3" stroke-linecap="round" fill="none">
      <!-- Head -->
      <circle cx="515" cy="268" r="9" fill="#F5EFE0"/>
      <!-- Bandana — crimson accent, the one pop of color in the scene -->
      <path d="M 506,265 Q 515,259 524,265 L 524,269 L 506,269 Z" fill="#A14545" stroke="#2A2018" stroke-width="0.8"/>
      <!-- Bandana knot + tails (crimson, outlined for readability) -->
      <line x1="524" y1="267" x2="531" y2="273" stroke="#A14545" stroke-width="2.2"/>
      <line x1="526" y1="265" x2="533" y2="269" stroke="#A14545" stroke-width="1.6"/>
      <!-- Two eyes -->
      <circle cx="512" cy="270" r="1.1" fill="#2A2018" stroke="none"/>
      <circle cx="518" cy="270" r="1.1" fill="#2A2018" stroke="none"/>
      <!-- Smile curve -->
      <path d="M 511,274 Q 515,276 519,274" stroke-width="1" fill="none"/>
      <!-- Earring -->
      <circle cx="506" cy="272" r="1" stroke="#2A2018" stroke-width="0.7" fill="none"/>
      <!-- Body -->
      <line x1="515" y1="277" x2="515" y2="315"/>
      <!-- Legs (reach deck at y=340) -->
      <line x1="515" y1="315" x2="504" y2="340"/>
      <line x1="515" y1="315" x2="526" y2="340"/>
      <!-- Back arm -->
      <line x1="515" y1="287" x2="503" y2="302"/>

      <!-- SWORD ARM + CUTLASS — windup → clash at keyTime 0.45 → recoil → back.
           Synced to the right figure (same dur + keyTimes) so blades meet at the same moment. -->
      <g>
        <animateTransform attributeName="transform" type="rotate"
                          values="12 515 287; -18 515 287; -5 515 287; 12 515 287"
                          keyTimes="0; 0.45; 0.7; 1"
                          dur="1.1s" repeatCount="indefinite"/>
        <!-- Forearm (extended forward from shoulder to fist) -->
        <line x1="515" y1="287" x2="548" y2="280"/>
        <!-- Fist wrapping around the hilt -->
        <circle cx="548" cy="280" r="3.2" fill="#F5EFE0" stroke="#2A2018" stroke-width="1.4"/>
        <!-- Pommel peeking out behind the fist -->
        <circle cx="545" cy="283" r="1.7" fill="#2A2018" stroke="none"/>
        <!-- Wrapped grip — aligned with the sword axis (fist → tip is one straight line) -->
        <line x1="549" y1="279" x2="554" y2="275" stroke="#2A2018" stroke-width="3" stroke-linecap="round"/>
        <!-- Crossguard (quillons) — perpendicular to the sword, at the hilt/blade junction -->
        <line x1="552" y1="270" x2="559" y2="279" stroke="#2A2018" stroke-width="2.8" stroke-linecap="round"/>
        <!-- D-knuckle guard -->
        <path d="M 559,279 Q 563,283 554,281" stroke="#2A2018" stroke-width="1.4" fill="none" stroke-linecap="round"/>
        <!-- Cutlass blade — curved spine + curved edge, meeting at a single sharp point -->
        <path d="M 556,272 Q 584,246 619,226 Q 590,253 558,276 Z"
              fill="#F5EFE0" stroke="#2A2018" stroke-width="1.7" stroke-linejoin="miter" stroke-miterlimit="6"/>
        <!-- Blade fuller (follows the curve) -->
        <path d="M 561,268 Q 585,248 614,231" stroke="#2A2018" stroke-width="0.6" fill="none" opacity="0.55"/>
      </g>
    </g>

    <!-- ═══════════════════════════════════════════ -->
    <!-- STICK FIGURE 2 — RIGHT (pirate hat + patch) -->
    <!-- ═══════════════════════════════════════════ -->
    <g stroke="#2A2018" stroke-width="2.3" stroke-linecap="round" fill="none">
      <!-- Head -->
      <circle cx="685" cy="268" r="9" fill="#F5EFE0"/>
      <!-- Pirate tricorn — wavy brim with three peaks (two side peaks + a taller front peak), narrowed so the brim isn't overhanging so far past the head -->
      <path d="M 667,267 L 672,251 Q 681,256 685,248 Q 689,256 698,251 L 703,267 Q 685,271 667,267 Z"
            fill="#2A2018" stroke="none"/>
      <!-- Brim seam — faint cream highlight showing the brim/crown division -->
      <path d="M 672,263 Q 685,267 698,263" stroke="#F5EFE0" stroke-width="0.5" fill="none" opacity="0.35"/>
      <!-- Skull-and-crossbones emblem on the crown front -->
      <g stroke="#F5EFE0" stroke-width="0.7" stroke-linecap="round" fill="none">
        <line x1="681" y1="255" x2="689" y2="261"/>
        <line x1="681" y1="261" x2="689" y2="255"/>
      </g>
      <circle cx="685" cy="258" r="1.7" fill="#F5EFE0"/>
      <circle cx="683.6" cy="257.5" r="0.4" fill="#2A2018"/>
      <circle cx="686.4" cy="257.5" r="0.4" fill="#2A2018"/>
      <path d="M 685,258.6 L 684,260 L 686,260 Z" fill="#2A2018"/>
      <!-- Eye patch (proper oval shape) -->
      <ellipse cx="681" cy="269" rx="3" ry="2.5" fill="#2A2018" stroke="none"/>
      <!-- Patch strap across forehead -->
      <line x1="678" y1="267" x2="692" y2="265" stroke-width="1"/>
      <!-- Good eye -->
      <circle cx="689" cy="270" r="1.2" fill="#2A2018" stroke="none"/>
      <!-- Smile curve -->
      <path d="M 681,274 Q 685,276 689,274" stroke-width="1" fill="none"/>
      <!-- Earring -->
      <circle cx="694" cy="273" r="1" stroke="#2A2018" stroke-width="0.7" fill="none"/>
      <!-- Body -->
      <line x1="685" y1="277" x2="685" y2="315"/>
      <!-- Legs (reach deck at y=340) -->
      <line x1="685" y1="315" x2="674" y2="340"/>
      <line x1="685" y1="315" x2="696" y2="340"/>
      <!-- Back arm -->
      <line x1="685" y1="287" x2="697" y2="302"/>

      <!-- SWORD ARM + CUTLASS — mirrored; shares dur + keyTimes with the left figure so blades clash together -->
      <g>
        <animateTransform attributeName="transform" type="rotate"
                          values="-12 685 287; 18 685 287; 5 685 287; -12 685 287"
                          keyTimes="0; 0.45; 0.7; 1"
                          dur="1.1s" repeatCount="indefinite"/>
        <!-- Forearm (extended forward-left) -->
        <line x1="685" y1="287" x2="652" y2="280"/>
        <!-- Fist wrapping around the hilt -->
        <circle cx="652" cy="280" r="3.2" fill="#F5EFE0" stroke="#2A2018" stroke-width="1.4"/>
        <!-- Pommel peeking out behind the fist -->
        <circle cx="655" cy="283" r="1.7" fill="#2A2018" stroke="none"/>
        <!-- Wrapped grip — aligned with the sword axis -->
        <line x1="651" y1="279" x2="646" y2="275" stroke="#2A2018" stroke-width="3" stroke-linecap="round"/>
        <!-- Crossguard — perpendicular at the hilt/blade junction -->
        <line x1="648" y1="270" x2="641" y2="279" stroke="#2A2018" stroke-width="2.8" stroke-linecap="round"/>
        <!-- D-knuckle guard (mirrored) -->
        <path d="M 641,279 Q 637,283 646,281" stroke="#2A2018" stroke-width="1.4" fill="none" stroke-linecap="round"/>
        <!-- Cutlass blade (mirrored) — curved spine + curved edge, single sharp point -->
        <path d="M 644,272 Q 616,246 581,226 Q 610,253 642,276 Z"
              fill="#F5EFE0" stroke="#2A2018" stroke-width="1.7" stroke-linejoin="miter" stroke-miterlimit="6"/>
        <!-- Blade fuller (follows the curve) -->
        <path d="M 639,268 Q 615,248 586,231" stroke="#2A2018" stroke-width="0.6" fill="none" opacity="0.55"/>
      </g>
    </g>

    <!-- CLASH SPARKS at the cutlass crossing — fire at keyTime 0.45 of the 1.1s sword cycle -->
    <g transform="translate(600 225)" stroke="#2A2018" stroke-width="2" stroke-linecap="round">
      <g>
        <animate attributeName="opacity" values="0;0;1;0;0"
                 keyTimes="0; 0.4; 0.45; 0.55; 1"
                 dur="1.1s" repeatCount="indefinite"/>
        <line x1="0" y1="0" x2="-8" y2="-8"/>
        <line x1="0" y1="0" x2="8" y2="-8"/>
        <line x1="0" y1="0" x2="-11" y2="0"/>
        <line x1="0" y1="0" x2="11" y2="0"/>
        <line x1="0" y1="0" x2="0" y2="-11"/>
        <line x1="0" y1="0" x2="-6" y2="6"/>
        <line x1="0" y1="0" x2="6" y2="6"/>
      </g>
    </g>
  </g>

  <!-- Ocean — two layered waves in muted blue-grey -->
  <g clip-path="inset(0)">
    <path fill="#B5C9D4" d="M -40,375 Q 40,365 120,375 Q 200,385 280,375 Q 360,365 440,375 L 760,375 Q 840,385 920,375 Q 1000,365 1080,375 Q 1160,385 1240,375 L 1240,400 L -40,400 Z">
      <animate attributeName="d" dur="5s" repeatCount="indefinite"
        values="M -40,375 Q 40,365 120,375 Q 200,385 280,375 Q 360,365 440,375 L 760,375 Q 840,385 920,375 Q 1000,365 1080,375 Q 1160,385 1240,375 L 1240,400 L -40,400 Z;
                M -40,375 Q 40,385 120,375 Q 200,365 280,375 Q 360,385 440,375 L 760,375 Q 840,365 920,375 Q 1000,385 1080,375 Q 1160,365 1240,375 L 1240,400 L -40,400 Z;
                M -40,375 Q 40,365 120,375 Q 200,385 280,375 Q 360,365 440,375 L 760,375 Q 840,385 920,375 Q 1000,365 1080,375 Q 1160,385 1240,375 L 1240,400 L -40,400 Z"/>
    </path>
    <path fill="#93AEBF" opacity="0.9" d="M -40,390 Q 60,385 160,390 Q 260,395 360,390 L 760,390 Q 860,385 960,390 Q 1060,395 1160,390 Q 1240,385 1240,390 L 1240,400 L -40,400 Z">
      <animate attributeName="d" dur="4s" repeatCount="indefinite"
        values="M -40,390 Q 60,385 160,390 Q 260,395 360,390 L 760,390 Q 860,385 960,390 Q 1060,395 1160,390 Q 1240,385 1240,390 L 1240,400 L -40,400 Z;
                M -40,390 Q 60,395 160,390 Q 260,385 360,390 L 760,390 Q 860,395 960,390 Q 1060,385 1160,390 Q 1240,395 1240,390 L 1240,400 L -40,400 Z;
                M -40,390 Q 60,385 160,390 Q 260,395 360,390 L 760,390 Q 860,395 960,390 Q 1060,385 1160,390 Q 1240,385 1240,390 L 1240,400 L -40,400 Z"/>
    </path>

    <!-- Wave crest marks — tiny ˘ shapes scattered across the water for texture -->
    <g stroke="#2A2018" fill="none" stroke-linecap="round">
      <!-- Upper water (smaller, fainter crests just under the surface) -->
      <g stroke-width="0.8" opacity="0.4">
        <path d="M 80,380 Q 84,378 88,380"/>
        <path d="M 155,383 Q 160,381 165,383"/>
        <path d="M 245,378 Q 251,376 257,378"/>
        <path d="M 320,382 Q 326,380 332,382"/>
        <path d="M 395,378 Q 401,376 407,378"/>
        <path d="M 865,382 Q 871,380 877,382"/>
        <path d="M 940,378 Q 946,376 952,378"/>
        <path d="M 1030,382 Q 1036,380 1042,382"/>
        <path d="M 1110,378 Q 1116,376 1122,378"/>
      </g>
      <!-- Mid water -->
      <g stroke-width="0.9" opacity="0.5">
        <path d="M 55,390 Q 63,387 71,390"/>
        <path d="M 140,393 Q 148,390 156,393"/>
        <path d="M 215,388 Q 223,385 231,388"/>
        <path d="M 295,391 Q 303,388 311,391"/>
        <path d="M 370,388 Q 378,385 386,388"/>
        <path d="M 840,391 Q 848,388 856,391"/>
        <path d="M 915,388 Q 923,385 931,388"/>
        <path d="M 990,391 Q 998,388 1006,391"/>
        <path d="M 1065,388 Q 1073,385 1081,388"/>
        <path d="M 1140,391 Q 1148,388 1156,391"/>
      </g>
      <!-- Deeper water (scattered, smaller) -->
      <g stroke-width="0.8" opacity="0.45">
        <path d="M 100,397 Q 106,395 112,397"/>
        <path d="M 180,399 Q 186,397 192,399"/>
        <path d="M 260,395 Q 266,393 272,395"/>
        <path d="M 340,398 Q 346,396 352,398"/>
        <path d="M 880,399 Q 886,397 892,399"/>
        <path d="M 960,397 Q 966,395 972,397"/>
        <path d="M 1040,399 Q 1046,397 1052,399"/>
        <path d="M 1120,396 Q 1126,394 1132,396"/>
      </g>
    </g>
  </g>

  <!-- Shark swimming right-to-left, mirrored so head leads. Shifted further down so it swims deep in the water -->
  <g transform="translate(1200, 32) scale(-1, 1)">
    <g>
      <!-- Horizontal drift (right-to-left in screen space due to outer mirror) -->
      <animateTransform attributeName="transform" type="translate"
                        values="-260,0; 1280,0"
                        dur="34s" repeatCount="indefinite"/>
      <g>
        <!-- Vertical bob — different period from airship so they don't look synced -->
        <animateTransform attributeName="transform" type="translate"
                          values="0,0; 0,3; 0,-2; 0,2; 0,0"
                          dur="3.7s" repeatCount="indefinite"/>
        <!-- Body silhouette — grey like a great white -->
        <path d="M 228,362 Q 222,355 208,352 Q 198,350 192,352 L 175,330 L 172,352 Q 160,355 148,358 L 141,349 L 135,358 Q 125,360 115,361 L 95,340 L 108,361 L 100,380 L 115,361 Q 140,374 175,373 Q 210,372 220,368 Q 225,365 228,362 Z"
              fill="#9BA3A8" stroke="#2A2018" stroke-width="2" stroke-linejoin="round"/>
        <!-- Pectoral fin hanging below the body -->
        <path d="M 195,370 L 178,382 L 210,370 Z"
              fill="#9BA3A8" stroke="#2A2018" stroke-width="1.8" stroke-linejoin="round"/>
        <!-- Gill slits -->
        <g stroke="#2A2018" stroke-width="1" fill="none" stroke-linecap="round">
          <line x1="213" y1="358" x2="211" y2="365"/>
          <line x1="209" y1="358" x2="207" y2="365"/>
          <line x1="205" y1="358" x2="203" y2="365"/>
          <line x1="201" y1="358" x2="199" y2="365"/>
          <line x1="197" y1="358" x2="195" y2="365"/>
        </g>
        <!-- Eye -->
        <circle cx="219" cy="359" r="1.5" fill="#2A2018"/>
        <!-- Toothy grin -->
        <path d="M 221,369 L 223,371 L 225,369 L 227,371 L 229,369"
              stroke="#2A2018" stroke-width="0.9" fill="none"/>
      </g>
    </g>
  </g>

  <!-- ═══════════════════════════════════════════════════════ -->
  <!-- STEAMPUNK AIRSHIP — drifts across the upper sky         -->
  <!-- ═══════════════════════════════════════════════════════ -->
  <g>
    <!-- Horizontal drift: 50s from off-screen left to off-screen right -->
    <animateTransform attributeName="transform" type="translate"
                      values="-350,0; 1500,0"
                      dur="50s" repeatCount="indefinite"/>
    <g>
      <!-- Gentle vertical bob -->
      <animateTransform attributeName="transform" type="translate"
                        values="0,0; 0,-4; 0,2; 0,-2; 0,0"
                        dur="4.5s" repeatCount="indefinite"/>

      <!-- Rope from gondola stern, pulling the ribbon along behind -->
      <line x1="165" y1="115" x2="110" y2="118" stroke="#2A2018" stroke-width="1.3" stroke-linecap="round"/>

      <!-- Ribbon — trailing at the end of the rope, waves in the wind -->
      <path d="M 110,108 Q 60,104 10,108 Q -30,112 -70,108 L -70,130 Q -30,134 10,130 Q 60,126 110,130 Z"
            fill="#F0E8D0" stroke="#2A2018" stroke-width="1.5" stroke-linejoin="round">
        <animate attributeName="d" dur="2s" repeatCount="indefinite"
          values="M 110,108 Q 60,104 10,108 Q -30,112 -70,108 L -70,130 Q -30,134 10,130 Q 60,126 110,130 Z;
                  M 110,108 Q 60,112 10,108 Q -30,104 -70,108 L -70,130 Q -30,126 10,130 Q 60,134 110,130 Z;
                  M 110,108 Q 60,104 10,108 Q -30,112 -70,108 L -70,130 Q -30,134 10,130 Q 60,126 110,130 Z"/>
      </path>
      <text x="20" y="123" font-family="'Courier New', Courier, monospace"
            font-size="10" font-weight="900"
            fill="#2A2018" stroke="#2A2018" stroke-width="0.6"
            text-anchor="middle">NO TESTS, JUST PUSH &amp; COMMIT</text>

      <!-- Envelope (gas balloon) centered at (200, 75) — steampunk canvas/brass -->
      <ellipse cx="200" cy="75" rx="75" ry="20"
               fill="#C8A876" stroke="#2A2018" stroke-width="2.5"/>

      <!-- Diamond lattice pattern on envelope -->
      <g stroke="#2A2018" stroke-width="0.8" fill="none" opacity="0.6" stroke-linecap="round">
        <!-- Diagonals going up-right (NW to SE across envelope) -->
        <path d="M 140,85 Q 165,72 195,60"/>
        <path d="M 160,90 Q 190,75 225,60"/>
        <path d="M 185,92 Q 215,77 250,62"/>
        <path d="M 215,92 Q 240,80 265,70"/>
        <!-- Diagonals going up-left (NE to SW) -->
        <path d="M 140,65 Q 165,78 195,90"/>
        <path d="M 160,60 Q 190,75 225,90"/>
        <path d="M 185,58 Q 215,73 250,88"/>
        <path d="M 215,58 Q 240,70 265,80"/>
      </g>
      <!-- Hull seam across envelope -->
      <line x1="130" y1="75" x2="270" y2="75"
            stroke="#2A2018" stroke-width="0.8" stroke-dasharray="3 2"/>

      <!-- Rigging from envelope down to gondola — denser, spread to the ends -->
      <line x1="138" y1="85" x2="165" y2="110" stroke="#2A2018" stroke-width="1"/>
      <line x1="160" y1="92" x2="170" y2="110" stroke="#2A2018" stroke-width="1.1"/>
      <line x1="180" y1="94" x2="180" y2="110" stroke="#2A2018" stroke-width="1.1"/>
      <line x1="200" y1="95" x2="200" y2="110" stroke="#2A2018" stroke-width="1.1"/>
      <line x1="220" y1="94" x2="220" y2="110" stroke="#2A2018" stroke-width="1.1"/>
      <line x1="240" y1="92" x2="230" y2="110" stroke="#2A2018" stroke-width="1.1"/>
      <line x1="262" y1="85" x2="235" y2="110" stroke="#2A2018" stroke-width="1"/>

      <!-- Gondola (cabin) — dark brass/wood -->
      <path d="M 165,110 L 235,110 L 240,128 L 160,128 Z"
            fill="#8B6B47" stroke="#2A2018" stroke-width="2" stroke-linejoin="round"/>

      <!-- Portholes — lit from inside, warm cream glow at dusk -->
      <g fill="#F0E8D0" stroke="#2A2018" stroke-width="1.3">
        <circle cx="178" cy="119" r="3"/>
        <circle cx="200" cy="119" r="3"/>
        <circle cx="222" cy="119" r="3"/>
      </g>

      <!-- Exposed gear/cog on gondola stern — brass -->
      <circle cx="246" cy="119" r="4" fill="#CD853F" stroke="#2A2018" stroke-width="0.9"/>
      <g stroke="#2A2018" stroke-width="0.8" fill="none" stroke-linecap="round">
        <line x1="241" y1="119" x2="251" y2="119"/>
        <line x1="246" y1="114" x2="246" y2="124"/>
        <line x1="242.5" y1="115.5" x2="249.5" y2="122.5"/>
        <line x1="242.5" y1="122.5" x2="249.5" y2="115.5"/>
      </g>

      <!-- Smokestack on top of envelope — copper -->
      <rect x="208" y="46" width="7" height="10" fill="#8B5A2B" stroke="#2A2018" stroke-width="1"/>
      <rect x="207" y="44" width="9" height="3" fill="#2A2018"/>

      <!-- Smoke puffs rising and drifting back -->
      <g fill="#F5EFE0" stroke="#2A2018" stroke-width="0.9">
        <circle cx="211" cy="42" r="3">
          <animate attributeName="cx" values="211;180" dur="3s" repeatCount="indefinite"/>
          <animate attributeName="cy" values="42;28" dur="3s" repeatCount="indefinite"/>
          <animate attributeName="opacity" values="0.85;0" dur="3s" repeatCount="indefinite"/>
          <animate attributeName="r" values="3;8" dur="3s" repeatCount="indefinite"/>
        </circle>
        <circle cx="211" cy="42" r="3">
          <animate attributeName="cx" values="211;170" dur="3s" repeatCount="indefinite" begin="1s"/>
          <animate attributeName="cy" values="42;22" dur="3s" repeatCount="indefinite" begin="1s"/>
          <animate attributeName="opacity" values="0.85;0" dur="3s" repeatCount="indefinite" begin="1s"/>
          <animate attributeName="r" values="3;9" dur="3s" repeatCount="indefinite" begin="1s"/>
        </circle>
        <circle cx="211" cy="42" r="3">
          <animate attributeName="cx" values="211;175" dur="3s" repeatCount="indefinite" begin="2s"/>
          <animate attributeName="cy" values="42;20" dur="3s" repeatCount="indefinite" begin="2s"/>
          <animate attributeName="opacity" values="0.85;0" dur="3s" repeatCount="indefinite" begin="2s"/>
          <animate attributeName="r" values="3;10" dur="3s" repeatCount="indefinite" begin="2s"/>
        </circle>
      </g>

      <!-- Rear stabilizer fins (top + bottom) — brass/wood -->
      <path d="M 128,67 L 112,50 L 130,63 Z" fill="#8B6B47" stroke="#2A2018" stroke-width="1.3" stroke-linejoin="round"/>
      <path d="M 128,83 L 112,100 L 130,87 Z" fill="#8B6B47" stroke="#2A2018" stroke-width="1.3" stroke-linejoin="round"/>

      <!-- Propeller at rear — spins continuously -->
      <g transform="translate(120 75)">
        <g>
          <animateTransform attributeName="transform" type="rotate"
                            values="0;360" dur="0.35s" repeatCount="indefinite"/>
          <line x1="0" y1="-9" x2="0" y2="9" stroke="#2A2018" stroke-width="2"/>
          <line x1="-9" y1="0" x2="9" y2="0" stroke="#2A2018" stroke-width="2"/>
        </g>
        <circle r="2" fill="#2A2018"/>
      </g>

    </g>
  </g>

  <!-- Name title at top -->
  <text x="600" y="52" text-anchor="middle"
        font-family="Palatino, 'Palatino Linotype', 'Book Antiqua', Georgia, 'Times New Roman', serif"
        font-size="42" font-weight="bold"
        fill="#2A2018" letter-spacing="6">PsycheBear</text>
</svg>
